<svg fill="none" height="57" viewBox="0 0 57 57" width="57" xmlns="http://www.w3.org/2000/svg" xmlns:xlink="http://www.w3.org/1999/xlink"><clipPath id="a"><path d="m0 0h57v57h-57z"/></clipPath><g clip-path="url(#a)"><path d="m21.66 3.41992c-2.5184 0-4.56 2.04158-4.56 4.56 0 2.51838 2.0416 4.55998 4.56 4.55998s4.56-2.0416 4.56-4.55998c0-2.51842-2.0416-4.56-4.56-4.56zm-18.24 4.56c-1.25856 0-2.28 1.02144-2.28 2.27998 0 1.2586 1.02144 2.28 2.28 2.28h5.46844l2.09296 2.093-5.07878 5.081c-.86298.8607-1.33817 2.0054-1.33817 3.2241 0 .7319.14275 1.4542.51211 2.0595l2.83442 4.6424h-5.06098c-1.57434 0-2.85 1.2757-2.85 2.85 0 1.5744 1.27566 2.85 2.85 2.85h10.2177.0468c.5209 0 1.0465-.1421 1.5185-.4408l.0022-.0023c.0023-.0011.0033.0001.0045-.0022.0057-.0045.0121-.0088.0178-.0133.0022-.0012.0056-.0011.0044-.0023l.0022-.0022c.5906-.3842.9932-.9505 1.1779-1.5786.0011-.0023 0-.0022 0-.0045.0285-.098.053-.1969.0712-.2983.1038-.5723.0341-1.1772-.2293-1.7301l-2.6496-5.7913 3.1573-3.1595 1.4673 2.7075c.4138.7638 1.1967 1.1968 2.0061 1.1979h5.415c1.2586 0 2.28-1.0214 2.28-2.28 0-1.2585-1.0214-2.28-2.28-2.28h-3.7184l-1.7367-5.7913c-.3636-1.2152-1.1357-2.2907-2.1731-3.0214l-6.3056-4.45091c-.3842-.27132-.8429-.41637-1.31369-.41637zm49.02 6.83998c-2.5184 0-4.56 2.0416-4.56 4.56s2.0416 4.56 4.56 4.56 4.56-2.0416 4.56-4.56-2.0416-4.56-4.56-4.56zm-20.6402 1.1423c-1.0545.0536-1.9705.849-2.1331 1.9393-.1869 1.246.67 2.4081 1.9149 2.5939l7.5458 1.1311 2.5761 3.8965-1.7078 1.7078c-.069-.0658-.1461-.1226-.2293-.1692-3.7365-2.0828-8.9864-1.9817-8.9864-1.9817-.4111-.0058-.7935.2102-1.0008.5653-.2072.3551-.2072.7943 0 1.1494.2073.3551.5897.5711 1.0008.5653 0 0 4.6484.1086 7.5436 1.543l-1.0487 1.0487c-1.1522-.1888-2.3007-.3117-3.3599-.3117-4.5646 0-8.0552.8864-10.4159 1.7857-2.3606.8993-3.6626 1.8614-3.6626 1.8614-.5042.3775-.6069 1.0923-.2294 1.5965s1.0923.6068 1.5965.2293c0 0 .9779-.7479 3.106-1.5586s5.335-1.6343 9.6054-1.6343c.4355 0 .9088.032 1.4005.0824.1051.0101.2164.0281.3229.0401 1.2315.1467 2.5641.4163 3.8497.7281.3121.0758.6198.1497.9218.2293.9088.2377 1.7534.4828 2.4759.7036.1176.0367.2563.076.3674.1113.542.1694.9295.2985 1.2491.4075.2386.082.5828.1962.7125.2427l.3206.1224.3607-.3607c.1306-.0862.242-.1984.3274-.3295l2.6006-2.6006c.8618-.8619 1.3359-2.0066 1.3359-3.2241s-.4741-2.3633-1.3359-3.224l-6.6975-6.8913c-.3603-.3819-.8322-.6184-1.3315-.6902l-8.5367-1.2803c-.1544-.0239-.308-.0321-.4586-.0245zm2.4648 18.2489c-.0376.2302-.0646.4631-.0646.7013 0 1.2175.4741 2.3634 1.3359 3.2241.2246.2246 1.1657 1.1829 2.2088 2.2488l3.3421 3.4178-3.7718 3.7718c-1.1138 1.1138-1.1138 2.9174 0 4.0301.5574.5563 1.2854.8349 2.015.8349s1.4576-.2786 2.015-.8349l5.6911-5.6889c.5085-.5016.7871-1.1533.835-1.8191.0125-.1619.0115-.3247-.0045-.4854-.0433-.4435-.1889-.8771-.4408-1.2647l-3.7117-5.9894c-.6327-.2144-1.5947-.5291-2.7119-.8506-2.0919-.603-4.7153-1.2286-6.7376-1.2958zm-2.1331 2.3668-2.8878 4.2483-7.8865 7.8887c-1.1138 1.1138-1.1138 2.9174 0 4.0301.554.5563 1.2832.8349 2.0128.8349s1.4587-.2786 2.015-.8349l8.0402-8.0379c.025-.024.0506-.0507.0757-.0757l2.634-2.6341c-.9702-.9883-1.934-1.974-2.2088-2.2488-.8903-.8892-1.4982-1.9804-1.7946-3.1706zm-28.18158 1.042-.83496.835c-1.11378 1.1138-1.11378 2.9174 0 4.0301.55518.5574 1.28544.8349 2.01504.8349s1.45872-.2786 2.01504-.8349l4.86506-4.8651z" fill="#f8b833"/></g></svg>