<svg id="Layer_1" data-name="Layer 1" xmlns="http://www.w3.org/2000/svg" viewBox="0 0 154.66 132.35"><defs><style>.cls-1{fill:#0d0d0d;}.cls-2{fill:#c9c9c9;}.cls-3{fill:#cbcbcb;}.cls-4{fill:#7f7f7f;}.cls-5{fill:#787878;}.cls-6{fill:#d8d8d8;}.cls-7{fill:#d7d7d7;}.cls-8{fill:#1e1e1e;}.cls-9{fill:#989898;}.cls-10{fill:#b5b5b5;}.cls-11{fill:#d4d4d4;}.cls-12{fill:#d5d5d5;}.cls-13{fill:#2c2c2c;}.cls-14{fill:#dadada;}.cls-15{fill:#343434;}.cls-16{fill:#c5c5c5;}.cls-17{fill:#7c7c7c;}.cls-18{fill:#fefefe;}.cls-19{fill:#fdfdfd;}.cls-20{fill:#020202;}.cls-21{fill:#010101;}.cls-22{fill:#fbfbfb;}.cls-23{fill:#f9f9f9;}.cls-24{fill:#f8f8f8;}.cls-25{fill:#f7f7f7;}.cls-26{fill:#f6f6f6;}.cls-27{fill:#2a2a2a;}.cls-28{fill:#dbdbdb;}.cls-29{fill:#2d2d2d;}.cls-30{fill:#f0f0f0;}.cls-31{fill:#f1f1f1;}.cls-32{fill:#efefef;}.cls-33{fill:#ebebeb;}.cls-34{fill:#f4f4f4;}.cls-35{fill:#f3f3f3;}.cls-36{fill:#ececec;}.cls-37{fill:#fcfcfc;}.cls-38{fill:#f5f5f5;}.cls-39{fill:#f2f2f2;}.cls-40{fill:#d9d9d9;}.cls-41{fill:#dedede;}.cls-42{fill:#707070;}.cls-43{fill:#6d6d6d;}.cls-44{fill:#e9e9e9;}.cls-45{fill:#a8a8a8;}.cls-46{fill:#a7a7a7;}.cls-47{fill:#ededed;}.cls-48{fill:#7e7e7e;}.cls-49{fill:#d3d3d3;}.cls-50{fill:#ddd;}.cls-51{fill:#a2a2a2;}.cls-52{fill:#bebebe;}.cls-53{fill:#acacac;}.cls-54{fill:#adadad;}.cls-55{fill:#aaa;}.cls-56{fill:#bababa;}.cls-57{fill:#cacaca;}.cls-58{fill:#434343;}.cls-59{fill:#686868;}.cls-60{fill:#9b9b9b;}.cls-61{fill:#9d9d9d;}.cls-62{fill:#c1c1c1;}.cls-63{fill:#606060;}.cls-64{fill:#a0a0a0;}.cls-65{fill:#757575;}.cls-66{fill:#898989;}.cls-67{fill:#b1b1b1;}.cls-68{fill:#777;}.cls-69{fill:#8a8a8a;}.cls-70{fill:#a1a1a1;}.cls-71{fill:#afafaf;}.cls-72{fill:#979797;}.cls-73{fill:#999;}.cls-74{fill:#b3b3b3;}.cls-75{fill:#c8c8c8;}.cls-76{fill:#818181;}.cls-77{fill:#8c8c8c;}.cls-78{fill:#ccc;}.cls-79{fill:#b0b0b0;}.cls-80{fill:#b2b2b2;}.cls-81{fill:#747474;}.cls-82{fill:#a6a6a6;}.cls-83{fill:#909090;}.cls-84{fill:#828282;}.cls-85{fill:#a4a4a4;}.cls-86{fill:#414141;}.cls-87{fill:#4e4e4e;}.cls-88{fill:#1c1c1c;}.cls-89{fill:#373737;}.cls-90{fill:#313131;}.cls-91{fill:#464646;}.cls-92{fill:#7b7b7b;}.cls-93{fill:#3a3a3a;}.cls-94{fill:#272727;}.cls-95{fill:#383838;}.cls-96{fill:#3f3f3f;}.cls-97{fill:#636363;}.cls-98{fill:#8d8d8d;}.cls-99{fill:#303030;}.cls-100{fill:#393939;}.cls-101{fill:#717171;}.cls-102{fill:#070707;}.cls-103{fill:#060606;}.cls-104{fill:#0f0f0f;}.cls-105{fill:#333;}.cls-106{fill:#212121;}.cls-107{fill:#1b1b1b;}.cls-108{fill:#111;}.cls-109{fill:#525252;}.cls-110{fill:#6f6f6f;}.cls-111{fill:#727272;}.cls-112{fill:#5b5b5b;}.cls-113{fill:#515151;}.cls-114{fill:#494949;}.cls-115{fill:#858585;}.cls-116{fill:#ababab;}.cls-117{fill:gray;}.cls-118{fill:#8b8b8b;}.cls-119{fill:#e7e7e7;}.cls-120{fill:#2e2e2e;}</style></defs><path class="cls-1" d="M112.69,100.9c-.86.8-2.1,1.12-2.81,2.11-1.92,2.66-4.41,4.9-5.79,8-.74,1.65-2.33,2.74-3.54,4.08a26.35,26.35,0,0,1-7,5.46.84.84,0,0,1-.24.14c-2.71.68-4.66,2.68-7,4a4.09,4.09,0,0,0-1,.74,16.67,16.67,0,0,1-3.68,3c-1.84,1.12-3.42,2.64-5.42,3.54-1.41.63-1.3.62-2.36-.51a49.23,49.23,0,0,0-4.31-4.11,69.57,69.57,0,0,0-8.94-6.07c-.35-.21-.67-.46-1-.68a4.76,4.76,0,0,0-2.75-1.25,3.5,3.5,0,0,1-2.14-1.06c-1.9-1.66-4.1-2.94-6-4.57a10.65,10.65,0,0,1-3.3-4,11.39,11.39,0,0,0-2.62-3.73c-1-1-1.68-2.13-2.61-3.12s-1.66-1.67-2.51-2.48c-.67-.1-.89-.61-1-1.17-.24-.74-1-1-1.44-1.54-1.57-.25-2.07-1.43-2.42-2.74a15.39,15.39,0,0,0-2.38-3.58,3.29,3.29,0,0,1-1.78-1.56c-.52-.77-1.06-1.55-1.51-2.36A2.37,2.37,0,0,0,25,86a1.13,1.13,0,0,1-1.06-.47.63.63,0,0,1-.06-.38c.07-.31.32-.42.57-.52.84-.32.94-.89.56-1.61-.51-1-.53-2.17-1.52-2.88a2.1,2.1,0,0,1-.42-1c-.62-1.4-.36-3-.76-4.42a9.81,9.81,0,0,0-.73-2c-.54-2.36-.19-4.79-.63-7.15-.25-1.39-.58-1.58-2-1.33a6.67,6.67,0,0,1-1.6.25c-.42,0-.85-.08-1-.54s.25-.61.55-.8.54-.49.87-.65a29.51,29.51,0,0,0,4.46-4.11c2.15-2.38,4.84-4.23,6.58-7,1.19-1.92,3.47-2.27,5.46-3,.74-.25,1.51-.45,2.23-.77a1.34,1.34,0,0,1,.4-.07,1.33,1.33,0,0,0-.45.08,14.26,14.26,0,0,1-2.52.82c-3.75.87-6.42,3.24-8.64,6.19a40.86,40.86,0,0,1-7.56,7.87A17.92,17.92,0,0,0,16.2,63.7c-.72.81-1.18.64-1.57-.5a3.19,3.19,0,0,1,.08-.62c.2-.56.71-1,.83-1.57,1.31-1.67,2.9-3.16,3.58-5.26a3.05,3.05,0,0,0,1.09-2.83,9.28,9.28,0,0,1,1.9-6.69,7.15,7.15,0,0,0,1.22-2.82,5.46,5.46,0,0,0,.18-1.8,1,1,0,0,1,.16-.36c.47-1.22.63-2.53,1.07-3.76a.9.9,0,0,0-.27-1c-1.27-1.35-1.19-1.75.47-2.52a1.84,1.84,0,0,0,.7-.38c1.78,0,2.58-1.19,3.22-2.6a3.75,3.75,0,0,1,1-1.42c.33-.27.56-.51-.14-.62-.35-.06-.15-.32,0-.5a7.43,7.43,0,0,1,2.61-2.28,17.4,17.4,0,0,0,4.83-3.67,20.67,20.67,0,0,1,4.51-3.21c1.59-1,3.2-2,4.8-3.07a3.48,3.48,0,0,0,1.46-1.55,2.74,2.74,0,0,1,1-1.1c1.42-1,2.8-2.12,4.19-3.2a3.68,3.68,0,0,1,3-.37c.86.12,1.72.12,2.57.18,1.76.11,4-2,4.11-4.41A10.45,10.45,0,0,0,61.56,1c-.12-.29-.56-.6-.23-.9s.7,0,1,.16a22.27,22.27,0,0,1,4.2,2.67,28,28,0,0,1,5.91,6.29c.28.43.24,1.3.81,1.23.3,0,.31-1,.43-1.58.35-1.62.16-3.32.82-4.9a3.58,3.58,0,0,0,0-1.34c0-.17-.11-.38.11-.46s.31.11.41.26c.66,1,1.33,2,2,3.07.35.57.67,1.17,1,1.75.09.14.13.38.37.23a.49.49,0,0,0,.18-.33A11.78,11.78,0,0,0,78.2.93a1.34,1.34,0,0,1-.1-.52c0-.28.32-.44.45-.22.69,1.24,2.08,1.77,2.82,3a38,38,0,0,1,3.13,7.72c.35,1.07.26,1.1,1.32.63a31.47,31.47,0,0,1,10.59-2.5,13.21,13.21,0,0,1,2.43-.2c.17,0,.41,0,.47.16s-.16.35-.36.46a40.3,40.3,0,0,0-4.75,2.88,3.87,3.87,0,0,0-.34.21c-.08.07-.23.16-.1.3a.31.31,0,0,0,.25,0c.51-.19,1.06-.25,1.58-.4a4.68,4.68,0,0,1,3.17.38c1,.45,2,1,3,1.55.08,0,.21.08.22.15.38,1.4,1.83,1.61,2.72,2.45.38.34.8.69.78,1.21s.28.89.85,1a8,8,0,0,1,3,1.24c1.91,1.22,4,2,6,3.06a13.05,13.05,0,0,1,4.53,3.58c.47.6,1.1,1.08,1.62,1.64s.39,1-.36,1.1a6.22,6.22,0,0,1-1.22,0c-.65,0-.92.26-.5.78,1,1.27,1.86,2.84,3.86,2.76.36.17.67.44,1,.62,1.28.65,1.42,1,.8,2.29a1.77,1.77,0,0,0,.13,1.66,11.35,11.35,0,0,1,1.21,3.13c.06.55.56.84.75,1.31a10.94,10.94,0,0,0,.36,1.68c.86.95.15,2.07.35,3.09a4.93,4.93,0,0,0,.22.53c1.83,2.89,2.19,6.26,3.09,9.46a1.15,1.15,0,0,1-.14,1.15c-.72.78,0,1,.49,1.25a13.31,13.31,0,0,0,1.81,2.09c.19.39.37.78,0,1.18-.57.38-.87-.16-1.27-.36a48.35,48.35,0,0,1-8.29-8.86,14.34,14.34,0,0,0-8.32-5.34c-.77-.18-1.49-.53-2.27-.7a3,3,0,0,1-.66-.14,5,5,0,0,0,.67.15,44.33,44.33,0,0,1,6.08,2.16,4.44,4.44,0,0,1,2.07,1.9A18.21,18.21,0,0,0,125.32,56c2.32,2.09,4.34,4.52,6.8,6.48.34.36,1.14.48.95,1.1s-.87.82-1.53.85a5.21,5.21,0,0,1-.79,0c-1.59-.17-2,.08-1.85,1.43a26.44,26.44,0,0,1-.56,8.6c-.38,1.3-.46,2.67-1,3.94-.16.42-.58.57-.88.82a.74.74,0,0,1-1,0c-.29-.25-.27-.63-.38-1a4.43,4.43,0,0,1,.14,1.2,13.59,13.59,0,0,1-.31,3.24c-.17,1.58-.21,1.57,1.35,1.59a.78.78,0,0,1,.71.3c.32.89-.12,1.37-.92,1.4a2.55,2.55,0,0,0-2.44,2c-.56,1.42-1.08,2.91-2.6,3.67h-.49c-1.17,0-2.42,1.3-2.72,2.84a28.36,28.36,0,0,1-.44,2.91,2.48,2.48,0,0,1-2.41,2.1,1.68,1.68,0,0,0-1,.58A1.2,1.2,0,0,1,112.69,100.9Z"/><path class="cls-2" d="M121.06,91.59c.38-1,1.06-1.88,1.52-2.85a12.33,12.33,0,0,0,.71-1.73c.51-1.66.5-1.65,2.32-1.67.58,0,1.4.25,1.22-.86a1,1,0,0,1-.58-.84c-.12-1.8-.36-3.61.58-5.3.28-1.37.57-2.74.85-4.12.61-.32.79-.93,1.06-1.5a4.53,4.53,0,0,1,6.43-2.34c.55.87,1.51,1.36,2,2.32.38.76.81.19,1.08-.23a3.23,3.23,0,0,1,2.5-1.41A3,3,0,0,1,144,72.77c.44.82.73.77,1.36.16,1.41-1.39,2.61-1.28,3.85.33.44.56.6.79,1.19.12a1.57,1.57,0,0,1,2.65.2,6.19,6.19,0,0,1,1.18,3.22c0,.36,0,.71,0,1.06a28.85,28.85,0,0,0,0,8.09,1.38,1.38,0,0,0,.42.74,2,2,0,0,0-.17.65c.35,4.48-.35,9-.1,13.43a3.75,3.75,0,0,1-.09.94c0,.22-.19.46-.44.45s-.25-.33-.26-.53c0-1.22,0-2.45,0-3.67a25.39,25.39,0,0,0-.29-4.61,8.2,8.2,0,0,0-.31-1.18,1,1,0,0,0-.95-.81,1.12,1.12,0,0,0-1.07.71,5.94,5.94,0,0,0-.4,1.57,56.68,56.68,0,0,0-.28,7.6c0,.5.21,1.41-.25,1.41s-.25-.91-.26-1.41c0-1.77,0-3.54,0-5.3a8.77,8.77,0,0,0-.55-3.06c-.25-.67-.53-1.43-1.4-1.51s-1.37.61-1.71,1.32a7.65,7.65,0,0,0-.7,3.3c0,2,0,4.08,0,6.12,0,.53.09,1.42-.44,1.41s-.32-.89-.33-1.37c0-2,0-3.9,0-5.85a8.81,8.81,0,0,0-.86-3.81,2.12,2.12,0,0,0-2-1.37c-.9,0-1.1.42-.73,1.25.08.19.34.38.09.58-.05,0-.29-.17-.43-.27-.8-.56-.88-.56-1.34.24a4.53,4.53,0,0,0-.73,2.44c0,2.38-.3,4.76-.13,7.15a5.3,5.3,0,0,1-.13.94c-.05.34,0,.81-.49.83s-.57-.49-.57-.88c0-2.5,0-5,0-7.49a5.52,5.52,0,0,0-1.43-3.85,2.71,2.71,0,0,0-2.55-1c-.51.07-.63.32-.29.72.17.21.38.4.56.6a6.85,6.85,0,0,1,1.78,4.45c.05,2,0,3.9,0,5.85a3.38,3.38,0,0,1,0,.55c0,.23-.12.45-.41.43s-.3-.2-.32-.38a9.83,9.83,0,0,1,0-1.09c0-1.77,0-3.53,0-5.3a6.22,6.22,0,0,0-1.56-4.38c-1.09-1.15-1.81-1.11-2.66.26-.21.34-.28.78-.67,1-.13.18-.26.36-.4.53-.71.93-1.08.94-1.8.06-.17-.21-.35-.4-.52-.6a3.71,3.71,0,0,0-3.27-2.68c-.26,0-.61-.13-.77.11s.16.46.32.65.57.58.83.9a7.59,7.59,0,0,1,1.8,5.27c-.06,1.58,0,3.17,0,4.76,0,.31,0,.63,0,.95s-.11.55-.47.54-.47-.26-.52-.54a7.74,7.74,0,0,1-.06-1.08c0-2.08,0-4.17,0-6.25a5.59,5.59,0,0,0-1.78-4A2.5,2.5,0,0,0,121.06,91.59Z"/><path class="cls-3" d="M24,85.33c1.81-.21,3.24.07,4,2.11a22.63,22.63,0,0,0,2.34,3.85,5.36,5.36,0,0,0-3.62,4.92c-.05,2.08,0,4.17,0,6.25,0,.55.22,1.45-.53,1.47s-.49-.89-.52-1.39c-.05-1.32,0-2.64,0-4a9.12,9.12,0,0,1,1-4.72,9.9,9.9,0,0,1,1.7-2.09c.15-.16.41-.32.25-.56s-.32-.13-.49-.15A3.79,3.79,0,0,0,24,95c-.07,2.13-.05,4.27,0,6.4a13.11,13.11,0,0,1-.29,2.42c-.07.38-.2.76-.66.69s-.39-.47-.39-.78c0-2,0-4,0-6A22.92,22.92,0,0,0,22,93.48a2,2,0,0,0-.28-.62c-.48-.8-.7-.84-1.54-.32-.11.07-.28.17-.34.13s0-.22.05-.34c.42-.93.29-1.16-.68-1.26a2,2,0,0,0-1.72.63,5.88,5.88,0,0,0-1.4,3,28.72,28.72,0,0,0-.28,5.56c0,1,0,2.08,0,3.12,0,.23,0,.5-.32.53s-.43-.29-.43-.55c0-2,0-3.9,0-5.85A17.28,17.28,0,0,0,14.79,94a5.28,5.28,0,0,0-1.16-2.27,1.36,1.36,0,0,0-2.53.42,10.17,10.17,0,0,0-.73,3.58c0,2.08,0,4.17,0,6.25,0,.32,0,.64,0,.95s-.07.39-.3.39a.35.35,0,0,1-.37-.32,12.24,12.24,0,0,1-.09-1.35c0-2.08,0-4.16,0-6.25a8.12,8.12,0,0,0-.78-3.14,1.25,1.25,0,0,0-1.09-.91c-.65,0-1,.42-1.21.93A5.23,5.23,0,0,0,6,94.68c0,2.22,0,4.44,0,6.66,0,.32,0,.64,0,1s0,.4-.22.43-.26-.22-.27-.38c0-.37,0-.73,0-1.09a56.73,56.73,0,0,0-.26-7.6,4.41,4.41,0,0,0-.82-2.12c-.36-.46-.78-.46-1.08.08a4.47,4.47,0,0,0-.58,2.21c0,1.59,0,3.17,0,4.76,0,.36,0,.73,0,1.08s0,.49-.34.5a1,1,0,0,1-.12-.5c0-1.45,0-2.9,0-4.35a12,12,0,0,0-.52-3.2c-.05-.2,0-.53-.34-.48s-.2.35-.25.56a15.73,15.73,0,0,0-.27,4c0,1.63,0,3.27,0,4.9,0,.19,0,.52-.3.48-.18,0-.19-.27-.2-.45,0-.37,0-.73,0-1.09,0-4.25,0-8.51-.08-12.76a2.65,2.65,0,0,0-.16-.66,1.61,1.61,0,0,0,.63-1.08c-.1-2.5.44-5,.3-7.5,0-.56.07-1.1.83-1.11.82.25.73,1,.75,1.56.07,1.85,0,3.7.07,5.54,0,.6,0,1.55,1.12,1a12.77,12.77,0,0,0,.76-5.33c0-.77,0-1.54,0-2.31,0-.42.07-.9.59-.91s.48.54.48.9c0,2.08,0,4.17,0,6.25v0c-.11-2.58.2-5.15-.2-7.72a4,4,0,0,1,1.14-3,.91.91,0,0,1,1.52-.13c.71.92,1.84,1.76,1.15,3.21a.5.5,0,0,0,0,.51c.36,2.27.06,4.56.15,6.85,0,.17,0,.34,0,.51,0-.14,0-.27,0-.41-.1-2.33.22-4.66-.17-7,0-.86.12-1.54,1.23-1.35.45.44.29,1,.3,1.53a33.11,33.11,0,0,0,.39,6.59c.36,1.6.61,1.82,2.3,1.4a1.81,1.81,0,0,0,.41-.42,21.77,21.77,0,0,0,.73-6.86,13.07,13.07,0,0,1,0-1.77,3.7,3.7,0,0,0,.9-2.54,4.57,4.57,0,0,1,2.58-3,2.57,2.57,0,0,1,3.5,1.43c.15.31.31.62.47.94a8.57,8.57,0,0,1,.76,3,15.23,15.23,0,0,0,.93,3.52A18.8,18.8,0,0,1,24,85.33Z"/><path class="cls-4" d="M22.09,72.57c-.32-.32-.66-.62-1-.95a2.47,2.47,0,0,0-4,0,7.63,7.63,0,0,0-1,1.72c-.82.86-1.11.86-1.71,0a6,6,0,0,0-.64-.91,1.42,1.42,0,0,0-2.43.1A4.34,4.34,0,0,0,11,73c-1.1,1.81-1.33,1.82-2.7.19a1.14,1.14,0,0,0-2,0,3,3,0,0,0-.28.57C5.45,75,4.79,75.06,4,74c-.57-.74-1.08-.8-1.58,0-.35.54-.7,1-1.4.75a1.38,1.38,0,0,1-.84-1.55,48.62,48.62,0,0,1,.14-5.79l1.35-.85c.9-1.23,2.41-1.2,3.65-1.54,3.19-.86,6.53-1.12,9.74-2,0,.81.4,1,1,.5a14.27,14.27,0,0,1,1.71-1.3.4.4,0,0,1,.26.25c-.26.4-.72.53-1.07.82-.14.11-.37.18-.3.39s.29.14.46.12A11,11,0,0,0,20,63.11c1.06-.38,1.07-.36,1.35.71a23.24,23.24,0,0,1,.51,4.7C21.91,69.87,22,71.22,22.09,72.57Z"/><path class="cls-5" d="M135,70.94c-2.71-1-4.48-.36-5.76,2.28a1.46,1.46,0,0,1-1.55,1,30,30,0,0,0,.73-5.5,31.37,31.37,0,0,0-.35-4.73c-.08-.9-.11-.91.82-.67a5.64,5.64,0,0,0,1.73.28,4.67,4.67,0,0,0,3-.25,2,2,0,0,1,1.71-.08c2.4.17,4.76.67,7.13,1,1.91.27,3.72,1,5.66,1a2.31,2.31,0,0,1,1.86,1l2.37.89a4.67,4.67,0,0,1,2,1.3,5.61,5.61,0,0,1,.13,2.41,1.1,1.1,0,0,1-1.12,1.14c-1.49.06-3,.51-4.46.05a3.48,3.48,0,0,0-2-.05A4.38,4.38,0,0,1,144,72a10.37,10.37,0,0,0-6.15-.45A4.23,4.23,0,0,1,135,70.94Z"/><path class="cls-6" d="M15,63c-.31.49-.59,1-1.3,1A65.65,65.65,0,0,0,1.64,66.54q0-7.52,0-15.05a5.12,5.12,0,0,0-.23-1.6c1.2-1.44,2.91-2,4.57-2.68a70.57,70.57,0,0,1,14.79-3.77c.64-.1,1.26-.26,1.9-.36s1-.1,1.28.44c-.35.44-.31,1-.48,1.52a6.46,6.46,0,0,1-1.28,2.32,6.79,6.79,0,0,0-1.38,4.84,6.63,6.63,0,0,1-1.15,4.08C19,56,19,55.37,19,54.81c-.07-1.08,0-2.16-.05-3.24a3,3,0,0,0-1.47-2.72c-.62-.88-1.23-.68-1.86,0a5.86,5.86,0,0,0-1.4,3.81c-.09,2.64,0,5.3-.06,7.94,0,1,.8,1.41,1.1,2.16Z"/><path class="cls-7" d="M150,66.33c-2.53-.47-5-1.19-7.57-1.52a65.8,65.8,0,0,0-7.39-1c-.58-.28-1.39-.23-1.54-1.11l-.7-.8a9.94,9.94,0,0,1-.65-4.15c0-1.71.1-3.43,0-5.14-.26-3.62-1.17-4.61-4.7-5.24-.17-.57-1.08-1.06,0-1.74.39-.25-.24-.93-.37-1.42.14-1,.9-.81,1.53-.7,6.93,1.21,13.81,2.58,20,6.1a11.57,11.57,0,0,0-.25,2.69q0,4.94,0,9.87c0,.82,0,1.56,1.09,1.68.45,0,.54.44.55.82C150,65.25,150,65.79,150,66.33Z"/><path class="cls-8" d="M25.64,33.61a4.28,4.28,0,0,1-1.18,1.29c-.17.15-.36.31-.3.56s.3.31.54.33.27,0,.4,0c1,.15,1.07.27.67,1.09a34.43,34.43,0,0,0-1.44,4.63c-1.26-.34-2.43.18-3.61.4C15.09,43,9.49,44.2,4.29,46.74c-.54.26-1,.61-1.57.87-.73.34-1.25.25-1.19-.69.06-1.16-.23-2.33.18-3.46a11.69,11.69,0,0,1,4.86-4c.74-.36.82-.3.86.55,0,.58,0,1.17,0,1.76s.32.72.8.52a62.73,62.73,0,0,1,8-2.44c.54-.14.53-.54.54-1,0-.91,0-1.81,0-2.71a.89.89,0,0,1,.82-1A64,64,0,0,1,25.64,33.61Z"/><path class="cls-8" d="M125.92,41.26a31.82,31.82,0,0,0-1.76-4c-.34-.66-.57-1.29.47-1.57.44-.12.39-.45.12-.74-.48-.53-1-1.06-1.47-1.59a52.91,52.91,0,0,1,6,1.3,1,1,0,0,1,.88,1.12c0,.91,0,1.82,0,2.72a.83.83,0,0,0,.71,1,78.89,78.89,0,0,1,8.26,2.28c.5.17.79,0,.8-.55s0-1.08,0-1.63c0-.87.13-1,1-.62a21.76,21.76,0,0,1,5.92,3.29,3.35,3.35,0,0,1,1.49,3.15,12.94,12.94,0,0,0,0,1.76c-.17.7-.47,1-1.21.55-5.81-3.17-12.21-4.43-18.59-5.73A15.32,15.32,0,0,1,125.92,41.26Z"/><path class="cls-9" d="M135,70.94c1.67-.09,3.35.1,5-.13a2.4,2.4,0,0,1,1.33.17c1.54.77,3.23.28,4.81.66a1,1,0,0,0,.66-.11,3.25,3.25,0,0,1,2.63,0c1.44.47,2.86-.15,4.3-.14.46,0,.58-.51.59-.94,0-.63,0-1.26,0-1.9.43.4.3.92.3,1.4,0,1.8,0,3.6,0,5.4-.29.3-.2.69-.25,1.05a.64.64,0,0,1-.18.32.29.29,0,0,1-.34,0,12.11,12.11,0,0,0-1.2-2.55c-.47-1-1.4-.93-2,0a8.61,8.61,0,0,0-.57,1.23c-.1.23,0,.66-.34.66s-.31-.48-.39-.74a4.75,4.75,0,0,0-.87-2c-.94-1-1.7-1-2.63,0a5.19,5.19,0,0,0-.91,1.8c-.08.19-.1.5-.41.44s-.21-.26-.26-.43a10.16,10.16,0,0,0-.85-2.14,2.49,2.49,0,0,0-4.55-.14c-.31.49-.52,1-.83,1.55s-.6.61-.9,0A10,10,0,0,0,135,70.94Z"/><path class="cls-10" d="M.29,67.39c0,1.76,0,3.52,0,5.28a2.41,2.41,0,0,0,.12.93.85.85,0,0,0,1.5.28c.16-.16.27-.36.43-.52.72-.71,1.15-.69,1.79.06.84,1,1,1,1.69-.12a4.51,4.51,0,0,1,.49-.64c.79-.83,1.39-.8,2.16.06,1.3,1.44,1.3,1.44,2.34-.25,1-1.54,2.41-1.6,3.5-.13a5.28,5.28,0,0,1,.42.69c.33.62.8.66,1.36.33A11.9,11.9,0,0,1,16,74.7a.94.94,0,0,1-1,.85,1.14,1.14,0,0,1-.58,0c-.63-.33-.62-1.08-1-1.57-.57-.72-1.1-.71-1.61.06-.31.47-.31,1.17-1,1.38a.53.53,0,0,1-.37-.1,1.83,1.83,0,0,0-1.13,1.33l-.05,0a19.55,19.55,0,0,0-1-2.79c-.23-.35-.4-.71-.89-.72s-.8.37-1,.8a10.71,10.71,0,0,0-.7,3.71c0,2.3,0,4.61,0,6.91a2.59,2.59,0,0,0,.15,1.2c.08.18.46.38.23.52s-.5-.15-.55-.42a8.23,8.23,0,0,1-.1-1.21c0-2.17,0-4.34,0-6.51,0-.32,0-.63,0-1,0-.13-.07-.27-.24-.26s-.2.16-.21.3q0,.54,0,1.08c0,2.26,0,4.52,0,6.78,0,.34.27.82-.29,1-.74-.35-.62-1-.63-1.64,0-2,0-4,0-5.93a9.73,9.73,0,0,0-.35-2.4c0-.17-.13-.35-.34-.37s-.31.16-.38.33c-.19.49-.26,1.09-1,1-.67.29-.5.89-.51,1.41,0,2.11,0,4.21,0,6.32,0,.53.1,1.09-.31,1.55L.89,86.3a10.32,10.32,0,0,1-.18-3C.57,80.74,1,78.19.34,75.7a1.46,1.46,0,0,0-.27-.38C.05,73,0,70.7,0,68.4A1.23,1.23,0,0,1,.29,67.39Z"/><path class="cls-11" d="M1.71,43.46c0,1-.09,2.08-.08,3.12s.11,1,.87.52a26.43,26.43,0,0,1,6.4-3,100.37,100.37,0,0,1,14.3-3.38c.64-.11,1.23-.14,1.13.79l0,0c-.23,1.2-1.14,1.46-2.17,1.63a80.24,80.24,0,0,0-16,4,14.6,14.6,0,0,0-3.37,1.64c-.3.22-.7.48-1.1.11a14.6,14.6,0,0,1-.29-4.17C1.37,44.27,1.31,43.8,1.71,43.46Z"/><path class="cls-12" d="M125.92,41.26c.27-.47.71-.32,1.09-.25,5.84,1.11,11.66,2.27,17.18,4.56a16.54,16.54,0,0,1,3.32,1.84c.42.31.64.19.82-.22.15.62-.27,1.15-.27,1.75-.48.3-.82,0-1.22-.23a59.36,59.36,0,0,0-15.43-4.64,28,28,0,0,0-3.53-.61c-.62,0-.84-.59-1.33-.77C126.06,42.33,126.13,41.74,125.92,41.26Z"/><path class="cls-13" d="M1.66,48.89C7,45.57,13,44.38,19,43.2c1.42-.28,2.85-.58,4.28-.77a1.36,1.36,0,0,0,1.08-.87,14.61,14.61,0,0,1-.34,2,63.33,63.33,0,0,0-7.61,1.3,60.82,60.82,0,0,0-11.44,3.3c-1.21.51-2.25,1.34-3.49,1.77C1.43,49.54,1.34,49.17,1.66,48.89Z"/><path class="cls-13" d="M126.55,42.69A83.2,83.2,0,0,1,144.06,47a39.18,39.18,0,0,1,4,2l.54.71c-.4.34-.76.11-1.11-.09a44,44,0,0,0-10.83-3.84c-2.72-.69-5.47-1.19-8.24-1.65-.46-.07-1-.34-1.38.18C126.69,43.79,126.9,43.15,126.55,42.69Z"/><path class="cls-6" d="M115,99.45c1.58-1.22,2.68-2.68,2.46-4.82a2.28,2.28,0,0,1,.79-1.81,7.09,7.09,0,0,0,1.49-2.08c.07-.17.19-.36.38-.34s.16.27.2.43.17.51.25.77c-2,1-2.61,2.78-2.73,4.8a78,78,0,0,0-.3,8.23c0,.51,0,1-.7,1.11s-1.16-.16-1.19-1c0-1.31,0-2.62,0-3.93C115.64,100.24,115.68,99.67,115,99.45Z"/><path class="cls-14" d="M126.84,93.78a2.29,2.29,0,0,1,.37.12c1.2.72,1.2.72,2.35-.11a15.4,15.4,0,0,0-.57,4.43c0,1.9,0,3.8,0,5.7,0,.55-.12,1-.81,1s-.81-.46-.81-1c0-1.77,0-3.54,0-5.3A17.89,17.89,0,0,0,126.84,93.78Z"/><path class="cls-14" d="M32.75,94.87c.69,1,1.81,1.65,2.42,2.74a2.21,2.21,0,0,0-.24,1.45c0,1.54,0,3.08,0,4.62a2.9,2.9,0,0,1-.15,1.2.86.86,0,0,1-1,.57.78.78,0,0,1-.73-.69,3.29,3.29,0,0,1,0-.54C33,101.1,33.08,98,32.75,94.87Z"/><path class="cls-15" d="M153.82,76.65a1,1,0,0,1,.24,0c.37,2.23.07,4.48.17,6.72v.06c-.09-2.34.17-4.68-.14-7,0-.45-.11-.94.5-1.11l0,11.37h-.77a23.44,23.44,0,0,1-.15-4.81,29,29,0,0,1,.06-4.17Z"/><path class="cls-11" d="M18.33,99.37a14.59,14.59,0,0,1,.22-4.17,9.35,9.35,0,0,1,.36-1c.06-.15.13-.37.35-.27.07,0,.1.25.06.36-.81,2.42-.38,4.92-.49,7.38,0,.32,0,.64,0,1,0,.12-.08.32-.15.33-.24.06-.32-.17-.32-.33C18.33,101.53,18.33,100.45,18.33,99.37Z"/><path class="cls-16" d="M112.69,100.9A4.18,4.18,0,0,1,114,100c0,1.31,0,2.62,0,3.93,0,.33.09.82-.45.79s-.58-.4-.59-.78c0-.55,0-1.09,0-1.63A2.32,2.32,0,0,0,112.69,100.9Z"/><path class="cls-2" d="M36.61,99.15a3.44,3.44,0,0,1,1,1.17c-.46.8-.19,1.68-.25,2.52,0,.32,0,.64,0,1s0,.63-.33.65-.46-.37-.46-.68c0-1.13,0-2.26,0-3.39C36.56,100,36.6,99.56,36.61,99.15Z"/><path class="cls-17" d="M.07,75.32H.23a4.34,4.34,0,0,1,.45,2.6c.06,2.41,0,4.82,0,7.22a1.52,1.52,0,0,0,.39,1.3l0,0c-.26.42-.64.29-1,.22C0,82.89,0,79.1.07,75.32Z"/><path class="cls-18" d="M91.32,86a1.52,1.52,0,0,1-.25,2.22,6,6,0,0,1-6.18,1.63c-.48-.12-1-.27-1.42-.4a1.45,1.45,0,0,1-1.54-.13A21.84,21.84,0,0,1,76.13,85c-1.15-1.16-.83-2.67-.48-4a6.31,6.31,0,0,1,4.06-4.45,23,23,0,0,0,2.75-1.18A3.83,3.83,0,0,0,84,73.93a11.33,11.33,0,0,0,.58-1.22,6.76,6.76,0,0,1-.83.77,1,1,0,0,1-1.37-.07,3.1,3.1,0,0,0-3.3-.65,12.3,12.3,0,0,1-7.75,0,3.14,3.14,0,0,0-3.31.64,1.15,1.15,0,0,1-1.71-.07c-.15-.13-.27-.3-.41-.44.08.17.17.33.24.49a4.49,4.49,0,0,0,2.94,2.44,9.83,9.83,0,0,1,4,2.49,7.05,7.05,0,0,1,2,4.22,3,3,0,0,1-1.26,3.06c-1.66,1.26-3.11,2.79-5.06,3.65-.54.24-1.07.55-1.67.16l-1.28.4a5.76,5.76,0,0,1-6.9-2.52c-.4-1.08.12-1.37,1.13-1.49,1.31-.14,2.55.41,3.85.27a1.11,1.11,0,0,1,.4.06c-.1,0-.19,0-.28-.06-1.91-.15-3.85-.06-5.63-1a2.56,2.56,0,0,1-.59-1.93c2.06-.82,4.19-.46,6.31-.36a.74.74,0,0,0,.26,0c0,.07-.11,0-.16,0-1.17,0-2.34-.24-3.51-.15a4.32,4.32,0,0,1-2.57-.55,6.3,6.3,0,0,1-.78-.39c-.26-.18-.46-.43-.06-.69.07-.07.15-.16.12-.23-.66-1.49-.64-1.46,1.06-1.56a39.32,39.32,0,0,1,7.11.52.89.89,0,0,1,.26.09,1,1,0,0,0-.27-.09,32.93,32.93,0,0,0-6.94-.51c-1.12.09-1.33-.4-1.15-1.33.13-.66.36-1.31.43-2,0-1.83.73-3.54.81-5.35a2,2,0,0,0,0-.42c.13.11-.06.2,0,.33s.07-.06,0,.11c-.27.66.21,1.77-.82,1.94-1.23.21-1.22-1.23-1.9-1.8l-.15-.19.11.15a2,2,0,0,1,.29.4c1,1.37,1.87,2.79,1.63,4.6A10,10,0,0,1,57.62,77c-.32.81-.63.53-.9-.06A22.85,22.85,0,0,0,52.9,71.5,21.56,21.56,0,0,1,47.56,61a14.24,14.24,0,0,1-.26-3.38,7.89,7.89,0,0,1,2.12-5.18c.14-.15.4-.29.26-.55s-.32-.06-.5,0c-.85.06-.9,0-.5-.72a9.39,9.39,0,0,1,3.67-3.54c.29-.16,1.3-.25.22-.84-.25-.13,0-.4.11-.58a13.43,13.43,0,0,1,2.13-2.45c.28-.57-1.16-.31-.51-1A6.22,6.22,0,0,1,58,39.21,1.37,1.37,0,0,0,59,38a4.51,4.51,0,0,1,1.67-2.41c2.91-2.67,7.27-2.66,9.68-.07-.3,1.28.74,1.9,1.37,2.71a17,17,0,0,1,2.49,6.84c.35,1.83.47,3.69.71,5.53a5.08,5.08,0,0,0,.15.52c.24-.12.15-.36.17-.55A58.27,58.27,0,0,1,76.6,43a16.92,16.92,0,0,1,1.92-4.73,5.4,5.4,0,0,1,.73-.78,1.63,1.63,0,0,0,.65-1.92c3.4-3.39,8.67-2.07,11.06,1.81.12.2.3.4.3.6,0,.8.53,1.06,1.15,1.31A5.84,5.84,0,0,1,95.66,42c.16.31.49.67.23,1s-.65,0-1-.08c-.17,0-.37-.25-.48-.08s.14.29.27.4a12.5,12.5,0,0,1,2.6,2.38c.21.29.59.71.46.91-.61,1,.23,1.17.77,1.43a6.59,6.59,0,0,1,3.11,3.1c.28.54.46,1-.5.76-.11,0-.33,0-.36.07-.11.25.11.41.25.57a8.59,8.59,0,0,1,2,4.95,13.07,13.07,0,0,1-.35,4.18,21.07,21.07,0,0,1-4.52,9.18,28.25,28.25,0,0,0-4.37,5.88c-.29.4-.73.44-.8,0-.21-1.39-.81-2.82.08-4.2.22-.27.36-.6.58-.87,0-.07.13-.17.13-.22s.23,0,.07-.07-.07.12-.13.18c-.37.37-.46,1.08-1.17,1s-.81-.48-.82-1a8.12,8.12,0,0,0-.11-2c.17.63,0,1.29.14,1.9.38,1.69.64,3.39.87,5.11.12.61.26,1.23.4,1.83.23,1-.1,1.07-.95,1a26.26,26.26,0,0,0-6.85.5c-.12,0-.26,0-.39.05.13-.07.27,0,.4,0a22.56,22.56,0,0,1,6.71-.5,2.36,2.36,0,0,1,.87.25c.33,2.35-.48,3-2.37,3.09-1.34,0-2.68.21-4,.16a1.75,1.75,0,0,1-.56,0,1.42,1.42,0,0,0,.46,0c1.39,0,2.78-.16,4.17-.18a6.42,6.42,0,0,1,1.77.48c.31.09.36.37.18.65l0,.52c-.18,1.17-1.3,1.29-2,1.41a18.34,18.34,0,0,1-3.71.42.87.87,0,0,0-.31.07,1.32,1.32,0,0,1,.39-.1c1.3,0,2.56-.33,3.85-.38C90.92,85.66,91.15,85.68,91.32,86Z"/><path class="cls-19" d="M66.26,102.25a8.34,8.34,0,0,1,.21-6c.09-.24.32-.57,0-.72s-.44.23-.62.41c-.48.45-.68,1.08-1.62,1.14-.63,0-.74,1.14-1,1.81-.06.15-.05.41-.32.32-.08,0-.14-.22-.14-.35,0-.45,0-.9,0-1.35,0-.24.15-.61-.2-.68s-.28.29-.39.47c-.3.48-.4.1-.47-.13a4.51,4.51,0,0,1,0-2.16c.08-.45.32-.92-.4-1.22-.35-.16.07-2.21.45-2.52.21-.18.34-.05.4.13.24.65.51,1.29,1.27,1.48a3.59,3.59,0,0,0,2.38-.37,4.5,4.5,0,0,0,1.66-.88.9.9,0,0,1,.4-.82,11,11,0,0,1,4.24-1.7c.62-.08,1.3-.11,1.7.55s-.1,1.17-.48,1.66c0,.08-.11.15-.16.23.16-.09,0,0,.08-.1a10.27,10.27,0,0,1,.7-.78,1.41,1.41,0,0,1,2.38,0,6.17,6.17,0,0,0,1,.86,1.37,1.37,0,0,1,.21.15c-.13-.13,0,0-.1-.07a3.86,3.86,0,0,1-.88-.83,1,1,0,0,1,.33-1.49c1.27-.81,5.15.63,5.71,2.08a8.06,8.06,0,0,0,3,1.47c1.22.4,1.8.08,2.51-1.16.09-.15.11-.38.32-.39s.37.25.41.46c.16.79.82,1.58-.06,2.37-.25.23-.13.6-.09.91.06.49.15,1,.17,1.48s.17,1.16-.36,1.31c-.34.09-.35-.64-.53-1-.07-.11-.15-.28-.29-.22s-.11.22-.11.33a11.48,11.48,0,0,1,.06,2c0,.12,0,.28-.23.24a.26.26,0,0,1-.17-.17c-.14-.39-.23-.79-.4-1.16s-.36-1-1.06-.69c-.36.15-.47-.16-.63-.36s-.48-.65-.74-1c-.11-.13-.27-.32-.44-.24s-.14.39-.07.58a9.32,9.32,0,0,1,.64,4.92,2.48,2.48,0,0,0,0,.27c-.07.39,0,1-.41,1s-.21-.58-.3-.91-.07-.74-.44-.73-.43.63-.71.9c-.21.67-.69.71-1.26.56-.26.14-.36.42-.56.61a3.24,3.24,0,0,1-1.54,1.29c-.25.12-.5.23-.76,0s-.26-.53-.19-.86.46-.81.16-1.26c-.16.12.05,0-.12.09-1.37.26-1.85,1.38-2.39,2.45l-.18,0c-.35.3-.21,1.11-.63,1.07s-.45-.77-.62-1.22l-1.14-3.12c-.59.12-1.26.86-1.67-.24h0c-.1-.14-.21-.34-.4-.31-.37.07-.33.41-.26.64.19.63.4,1.26.63,1.88a2.62,2.62,0,0,0,.09.38c.07.18.3.36.08.57s-.37,0-.53-.16l-1-.81a3.53,3.53,0,0,0-1.65-1.17c-.7,0-.88-.52-1.13-1-.13-.25-.24-.52-.58-.43s-.25.41-.32.66S67,102.28,66.26,102.25Z"/><path class="cls-20" d="M82.57,91.37l-2.7-1.19a4.91,4.91,0,0,0-2.1-.43c-.35,0-.76,0-.94.35s.17.56.35.81.3.33.42.52c.24.4.72.66.68,1.21l-1.09-.75a4.58,4.58,0,0,1-1.11-1c-.68-.91-1.29-.78-1.9,0-.33.3-.57.72-1,.89s-.62-.06-.41-.51,1-.69.66-1.29-1-.29-1.52-.21A9.58,9.58,0,0,0,69,90.91a4.77,4.77,0,0,1-1.58.74c-1.1.08-2,.73-3.11.93A1.3,1.3,0,0,1,62.83,92c-.61-1-.24-1.52.75-1.5a4.54,4.54,0,0,0,3.51-1.12,26.65,26.65,0,0,0,6.47-4.46,2.33,2.33,0,0,0,.83-2c-.15-2.92-1.76-4.77-4.28-6-.65-.31-1.37-.49-2-.77A5,5,0,0,1,65,71.43c0-.22,0-.51.25-.56s.35.22.45.42c.22.39.42.8.67,1.17.62.89.66.89,1.39.12a2.69,2.69,0,0,1,2-.74,8.68,8.68,0,0,1,2.95.47,7.77,7.77,0,0,0,5,0,9.21,9.21,0,0,1,2.81-.48A2.39,2.39,0,0,1,82.81,73c.25.45.46.31.72.06a6.64,6.64,0,0,0,1.24-1.77c.11-.23.15-.61.5-.52s.17.4.16.62a5.28,5.28,0,0,1-2.67,4.74,19.11,19.11,0,0,1-2.53,1A6.3,6.3,0,0,0,76,83a2.08,2.08,0,0,0,.75,1.78,30.84,30.84,0,0,0,6.71,4.6c.88.94,2.11.89,3.24,1.11.48.09,1.06,0,1.07.72a1.09,1.09,0,0,1-1.08,1.16,3.57,3.57,0,0,1-1.85-.22A9.22,9.22,0,0,0,82.57,91.37Z"/><path class="cls-21" d="M80.5,102.52a2,2,0,0,0,.53-.82c.18-.3.59-.58.62-.08.09,1.23.66.4,1,.34s.55-.24.67.13a3.44,3.44,0,0,1,.1.8c0,.32.06.7.43.76s.53-.31.58-.61c.27-1.41.83-2.78.44-4.26-.08-.3-.2-.68.1-.88s.43.25.67.31c.78.18.88.82,1.19,1.43.89,1.72,1.11,3.69,2.21,5.31a2.1,2.1,0,0,1,.39.86A2.41,2.41,0,0,1,88.11,108c-.9,0-1.81,0-2.72-.1a4.49,4.49,0,0,0-2.64.5,2.53,2.53,0,0,1-2.46-.1,14.16,14.16,0,0,0-4-1.43.71.71,0,0,1-.66-1,3.29,3.29,0,0,0,.12-1.21v0c.46-1.11.89-2.23,2.34-2.33a.55.55,0,0,1,.56.27c.11.49-.28.84-.39,1.26a.56.56,0,0,0,0,.49C79.39,104.13,79.79,103.14,80.5,102.52Z"/><path class="cls-18" d="M17.72,48.33a1.55,1.55,0,0,1,1.52,1.12,5.62,5.62,0,0,1,.42,2.1c0,1.58,0,3.15,0,4.73a18.15,18.15,0,0,1-3.58,5.1c-1.41.61-1.77.39-1.85-1.12-.13-2.54-.1-5.09,0-7.63a5.3,5.3,0,0,1,1.66-4A1.37,1.37,0,0,1,17.72,48.33Z"/><path class="cls-22" d="M113.71,26c-2.16-.54-4.31-1.1-6.5-1.49a10.17,10.17,0,0,1-2.32-.76c-.37-.17-.75-.32-1.11-.51a13.15,13.15,0,0,0-12.3.15,15.33,15.33,0,0,0-2.88,1.4.47.47,0,0,1-.61,0c-.07-.07.13-.28.28-.39a24.8,24.8,0,0,1,10-4.72,7.09,7.09,0,0,1,4,.29,58.37,58.37,0,0,1,8.55,3.82c1.23.69,2.5,1.29,3.75,1.94C114.47,26.43,114,26.1,113.71,26Z"/><path class="cls-23" d="M60.82,24.66a37.68,37.68,0,0,0-5.22-2.25,10.44,10.44,0,0,0-7.81.22c-4,1.81-8.37,2.54-12.6,3.66-.29.08-.36-.06-.31-.32,3.27-1.55,6.35-3.5,9.73-4.82.6-.24,1.21-.42,1.78-.7a9.15,9.15,0,0,1,7.13-.29,24,24,0,0,1,7.89,4.19C61.42,24.84,61.17,24.85,60.82,24.66Z"/><path class="cls-22" d="M41,32.54c-.22-.53-.3-.93.49-1A85,85,0,0,1,52,30.71a2.24,2.24,0,0,1,1.17.3,19.58,19.58,0,0,0,2.61,1.46c.43.18.57.61.22.83-.66.44-.63,1-.64,1.65,0,.39-.13.67-.56.39-2-1.33-4.41-1.24-6.66-1.71s-4.32-.53-6.41-1.13C41.47,32.34,41.23,32.79,41,32.54Z"/><path class="cls-22" d="M108.45,32.6l-7.36,1.15-2,.33a8.58,8.58,0,0,0-3.84,1.24c-.44.31-.65.19-.67-.33a3.85,3.85,0,0,0-.09-1.08c-.18-.45-.89-.85-.65-1.26s1-.4,1.4-.74a6.45,6.45,0,0,1,4.87-1.17c2.75.2,5.51.35,8.25.75.31,0,.8-.1.7.52C108.88,32.23,109,32.79,108.45,32.6Z"/><path class="cls-23" d="M131.75,62.44c-2.95-2.13-5.46-4.77-8.2-7.14a11.17,11.17,0,0,1-2.5-3,4.62,4.62,0,0,0-2.5-2.16c-2.45-1-4.88-2-7.31-3a4.21,4.21,0,0,1-.45-.28c.19-.19.42-.11.61-.06,2.53.73,5.16,1,7.63,2a8.81,8.81,0,0,1,2.74,1.72,78.23,78.23,0,0,1,6.32,7.29,27.75,27.75,0,0,0,4.18,4.42C132.25,62.65,132.08,62.74,131.75,62.44Z"/><path class="cls-24" d="M18,62.49l-.26-.25a47.35,47.35,0,0,0,6.13-6.91c1-1.33,2.1-2.6,3.24-3.84A10.85,10.85,0,0,1,32,48.4c1.95-.6,3.95-.95,5.93-1.4.17,0,.42-.11.56.11-.16.07-.32.11-.48.19-2.1,1.07-4.34,1.81-6.5,2.77a4.76,4.76,0,0,0-2.46,2c-1.13,2.09-3,3.48-4.7,5A52.83,52.83,0,0,1,18,62.49Z"/><path class="cls-25" d="M122.49,80.17a15.6,15.6,0,0,1-.73,5.45,2.76,2.76,0,0,1-.25.48,1.91,1.91,0,0,1-.05-.52c.77-4.41-.54-8.54-1.71-12.68a8.52,8.52,0,0,0-1.31-2.38,55.52,55.52,0,0,0-5.4-6.64c-.25-.26-.47-.55-.71-.83-.08-.1-.2-.23-.06-.32a.44.44,0,0,1,.36.06,7.37,7.37,0,0,1,.66.48,46.88,46.88,0,0,1,6.93,7.08,7.23,7.23,0,0,1,1.91,4.35C122.25,76.46,122.51,78.21,122.49,80.17Z"/><path class="cls-26" d="M79.13,115.06c-.53,2-1,4.07-1.59,6.1-.83,3.15-1.68,6.29-2.28,9.5,0,.17,0,.42-.23.42s-.24-.32-.28-.52c-.86-4.54-2.06-9-3.32-13.43a5.58,5.58,0,0,1-.55-2.07c-.1-.3-.22-.61.31-.58,1.35,3.11,2.33,6.35,3.49,9.53.09.24.1.59.44.59.09,0,.19-.36.27-.57.93-2.69,1.88-5.38,2.8-8.08a5.68,5.68,0,0,1,.65-1.47C79.37,114.46,79.23,114.77,79.13,115.06Z"/><path class="cls-25" d="M37.1,63.57c-1.87,2.21-3.77,4.39-5.43,6.78s-2.1,5-2.75,7.6a18.57,18.57,0,0,0-.37,7.68,2,2,0,0,1,0,.49,3.2,3.2,0,0,1-.26-.48,15.25,15.25,0,0,1-.68-4.13,42,42,0,0,1,.63-8.38A2.42,2.42,0,0,1,28.61,72a46.84,46.84,0,0,1,8-8.66C36.93,63.08,37.1,63.14,37.1,63.57Z"/><path class="cls-24" d="M77.15,12.7a26.19,26.19,0,0,1-.72,5.24,35.06,35.06,0,0,0-1.2,9.11,4.52,4.52,0,0,1-.06.53c-.28-.07-.32-.32-.35-.52-.42-3.7-1.45-7.41,0-11.11a17.62,17.62,0,0,0,.85-9.21c0-.18-.12-.44,0-.5s.25.2.31.37A16.27,16.27,0,0,1,77.15,12.7Z"/><path class="cls-27" d="M127.4,47.41c2.12-.87,3.58-.33,4.59,1.72a8.42,8.42,0,0,1,.76,3.83l0,9-1.59-1.84a1.8,1.8,0,0,1-.22-2,1.12,1.12,0,0,0,0-.79c-.22-1.63-.43-3.26-.54-4.9a6.29,6.29,0,0,0-2.83-4.61Z"/><path class="cls-24" d="M113.22,87.66a3.4,3.4,0,0,1-.15,1.32,6.89,6.89,0,0,1-.37-1.14c-.52-3.29-2.58-5.76-4.5-8.27a80.12,80.12,0,0,1-5.09-8.17c-.1-.17-.38-.38-.15-.59s.5,0,.64.22c2.73,3.56,5.93,6.77,8,10.81A14.11,14.11,0,0,1,113.22,87.66Z"/><path class="cls-26" d="M46.43,71.1c.21,0,.23.14.24.27a1.37,1.37,0,0,1-.27.76,50.59,50.59,0,0,1-4.73,7.61c-.48.61-.92,1.24-1.38,1.86a16.64,16.64,0,0,0-3.18,6.84c0,.17-.1.34-.15.51-.17-.17-.13-.39-.14-.59a13.39,13.39,0,0,1,1.86-7c1.8-3.34,4.4-6.09,6.7-9.06.25-.33.51-.65.77-1A1.42,1.42,0,0,1,46.43,71.1Z"/><path class="cls-25" d="M57.86,11.56c2.28.64,4.39,1.72,6.59,2.56a2.7,2.7,0,0,1,1.15,1.12,78.09,78.09,0,0,1,4.27,6.93c.07.3-.07.39-.35.34a34.67,34.67,0,0,0-9.21-8.74c-1.07-.68-2.18-1.29-3.27-1.94C57.14,11.22,57.54,11.49,57.86,11.56Z"/><path class="cls-25" d="M80.46,21.38c1.18-2.28,2.69-4.38,4.05-6.56a1.58,1.58,0,0,1,.8-.69c2.21-.81,4.29-2,6.58-2.56.33-.07.75-.38.84.28A36.15,36.15,0,0,0,83,19.28c-.77.87-1.53,1.76-2.29,2.64C80.27,21.92,80.26,21.7,80.46,21.38Z"/><path class="cls-28" d="M104.39,41.78a2.29,2.29,0,0,1,.41-1.51c.5-.55.29-1.27.07-1.92a1,1,0,0,1,0-.35c.08.11.16.21.23.32s.19.38.37.32.21-.28.24-.45c.19-.93,0-1.9.3-2.83.09-.32-.15-.4-.4-.31-.46.17-.91.4-1.37.58-2.33.88-4.55,2.06-7,2.46-.14,0-.29.28-.42,0,0-.06.11-.24.21-.31a.83.83,0,0,0,.41-.52c.24-1.35,1.24-1.79,2.4-2L105.64,34c.57-.12.89,0,.72.66a13.61,13.61,0,0,0,0,2.71,5.11,5.11,0,0,1-.39,2.38.32.32,0,0,0,.18.45C106.17,41.4,105.67,41.88,104.39,41.78Z"/><path class="cls-29" d="M17.72,48.33a2.59,2.59,0,0,0-2,1.45,7.13,7.13,0,0,0-1,3.48c0,2.3-.05,4.6,0,6.89,0,1.29,0,1.29,1.39,1.23l-.83,1.39a5.47,5.47,0,0,0-.81,0c-.61.07-.81-.22-.81-.78,0-3.33,0-6.67.08-10A5.88,5.88,0,0,1,15,48.49a1.83,1.83,0,0,1,2.37-.71A.59.59,0,0,1,17.72,48.33Z"/><path class="cls-30" d="M30,34.46a39.79,39.79,0,0,1,3.45-4.53,5,5,0,0,1,1.8-1.19,18.51,18.51,0,0,1,10.18-.82,2.12,2.12,0,0,1,1.1.44,2.62,2.62,0,0,1-1.08,0,14.49,14.49,0,0,0-6.41.9,43.44,43.44,0,0,1-4.61,1.63,2.66,2.66,0,0,0-1.46.93C32.11,32.9,31.2,34,30.29,35,29.85,35,29.78,34.8,30,34.46Z"/><path class="cls-31" d="M118.92,34.45l-.15-.23a9.78,9.78,0,0,0-6-4.27c-2-.56-3.9-1.48-6-1.61a25,25,0,0,0-3.12.09c-.16,0-.34.07-.48-.08a2.6,2.6,0,0,1,.46-.25,17.26,17.26,0,0,1,7.15-.36c.45.06.89.17,1.34.26a8.2,8.2,0,0,1,6.12,4.28,14.25,14.25,0,0,0,1.17,1.66.33.33,0,0,1,.08.46A.38.38,0,0,1,118.92,34.45Z"/><path class="cls-32" d="M97.59,110.09a20.21,20.21,0,0,0,2.79-9.68,25.8,25.8,0,0,0-.68-9.3,2.31,2.31,0,0,1,0-.53c.24.07.3.29.37.48a17.81,17.81,0,0,1,1.34,10.21,10.19,10.19,0,0,0-.19,1.75,9.06,9.06,0,0,1-2.45,6.29,12.35,12.35,0,0,0-.84,1.07C97.65,110.44,97.54,110.36,97.59,110.09Z"/><path class="cls-33" d="M52.11,110.38c-3.41-4.34-2.93-3.31-3.39-8.27-.18-2-.66-3.94-.19-5.93a30.24,30.24,0,0,1,1.29-4.7c.13-.31.16-.8.54-.79.14,0-.06.56-.14.86a29,29,0,0,0-.06,12.9,18.54,18.54,0,0,0,2.24,5.65C52.47,110.37,52.36,110.44,52.11,110.38Z"/><path class="cls-34" d="M51.85,13.55A25.11,25.11,0,0,1,60,16.24a2.65,2.65,0,0,1,.53.42c.06.05.07.16.11.24a1.44,1.44,0,0,1-.32.13,1.28,1.28,0,0,1-.75-.23,13.61,13.61,0,0,0-3.12-.91c-.11,0-.31,0-.35.08s.1.21.19.3c.29.3,1.06.52.86.82s-.86-.07-1.3-.23c-.72-.26-1.43-.53-2.13-.85-1.58-.72-3.14-1.14-4.74-.07-.17.12-.49.3-.61.12s.19-.32.34-.45c.66-.55,1.34-1.08,2-1.64A1.26,1.26,0,0,1,51.85,13.55Z"/><path class="cls-18" d="M126.83,78.34c-.09,2-.07,4.1,0,6.14-.33.12-.28.67-.78.62a17.47,17.47,0,0,1-2.29-.07c-.24-.06-.17-.26-.1-.43A20.86,20.86,0,0,0,124.72,79c.11-.81-.29-1.55-.08-2.33,0-.14-.11-.39.18-.4.1,0,.23.12.3.22.31.47,1,.83.45,1.57-.25.36.09.78.31.92.43.27.33-.4.6-.5Z"/><path class="cls-35" d="M92.49,16.8c.45-.23.9-.44,1.33-.68.11-.06.17-.19.26-.29a1.71,1.71,0,0,0-.39,0,25.38,25.38,0,0,0-3.55.93,2.27,2.27,0,0,1-1,.26,2.5,2.5,0,0,1-.26-.07c0-.07.08-.17.15-.22a11,11,0,0,1,1-.64,26.49,26.49,0,0,1,7.61-2.46,1.7,1.7,0,0,1,1.42.27l2.23,1.78c.13.11.35.23.23.4s-.35,0-.49,0a5,5,0,0,0-5.15.06,21.85,21.85,0,0,1-2.82,1C92.76,17.18,92.48,17.27,92.49,16.8Z"/><path class="cls-24" d="M107.73,96.24a23.52,23.52,0,0,0,0-12.21c-.13-.32-.18-.6.31-.59.64.93,1.27,1.87,1.93,2.79a2.26,2.26,0,0,1,.42,1.53A21.79,21.79,0,0,1,108,97C107.29,96.92,107.65,96.54,107.73,96.24Z"/><path class="cls-24" d="M42.32,84a22.91,22.91,0,0,0-.23,11.54c.1.49.34,1,.13,1.46-.46-.26-.54-.76-.73-1.19a19.49,19.49,0,0,1-1.78-7.48,3.84,3.84,0,0,1,.61-2.44L42,83.45C42.49,83.44,42.45,83.7,42.32,84Z"/><path class="cls-35" d="M82.07,10.48a8.31,8.31,0,0,1-2.61,6c-.36.34-.57.86-1.11,1A2.79,2.79,0,0,1,78.93,16a17.92,17.92,0,0,0,2-3.56c.06-.21.16-.41,0-.61-.12.13-.25.25-.36.39a4,4,0,0,0-.22.34c-.13.16-.2.43-.48.34a1.18,1.18,0,0,1,0-.5,21.49,21.49,0,0,0,.42-7c-.07-.44-.62-1.14-.12-1.29s.7.68.9,1.13A14.36,14.36,0,0,1,82.07,10.48Z"/><path class="cls-36" d="M28.7,59.56a2.63,2.63,0,0,1-.3.44c-2.9,2.93-3.75,6.7-4.38,10.57a29.35,29.35,0,0,0-.33,5.13,4.53,4.53,0,0,1-.05.53c-.18-.1-.14-.3-.18-.47-.72-2.83-.16-5.63.06-8.47.28-3.6,2.41-5.88,4.88-8.05C28.65,59.2,28.78,59.28,28.7,59.56Z"/><path class="cls-34" d="M65.77,3.37a24.75,24.75,0,0,1,7,8.18c.74,1.28.11,2.56-.22,3.81a1,1,0,0,1-.14.23c0-.08-.12-.15-.13-.23-.15-2.42-1.78-4.2-2.77-6.26a15.81,15.81,0,0,0-4-5.4C65.41,3.44,65.5,3.32,65.77,3.37Z"/><path class="cls-37" d="M127.62,47.79a4.58,4.58,0,0,1,3.61,4.48,56.85,56.85,0,0,1,0,7.83c-.36-.34-.74-.67-1.07-1-.61-.67-.58-.77.34-1,.43-.11.49-.33.37-.69C129.73,54.19,129.14,50.83,127.62,47.79Z"/><path class="cls-34" d="M115.14,43.39a22.53,22.53,0,0,0,3.53.8c3.31.58,5.25,2.8,7,5.36.3.44.58.9.84,1.37.09.15.14.39,0,.5s-.29-.08-.39-.2c-2.78-3.79-6.76-5.76-11.06-7.22a2.06,2.06,0,0,1-.72-.33C114.39,43,114.82,43.38,115.14,43.39Z"/><path class="cls-38" d="M115.56,71.57c-.11.87.16,1.65-.23,2.37a4.15,4.15,0,0,1-.66-2.07C114,68.55,112,66,110,63.39c0-.07-.2-.09-.21-.16-.08-.36-.73-.63-.44-.94s.61.18.88.39A42,42,0,0,1,114.58,67a2.52,2.52,0,0,1,.62,1.48C115.34,69.52,115.45,70.6,115.56,71.57Z"/><path class="cls-38" d="M43.62,34.47c-.15-.13-.23-.37-.07-.45a1.22,1.22,0,0,1,.66,0c2.23.36,4.42.92,6.62,1.42,1.3.3,1.46,1.3,1.88,2.19.13.28-.07.43-.34.42a1.84,1.84,0,0,1-.66-.12,83.32,83.32,0,0,1-7.78-3.16C43.77,34.72,43.74,34.55,43.62,34.47Z"/><path class="cls-39" d="M35.45,43.68c-1.51.68-3.09,1.2-4.6,1.91a22.84,22.84,0,0,0-6.58,4.91c-.42,0-.49-.18-.24-.5a36.63,36.63,0,0,1,3.07-4,2.29,2.29,0,0,1,.95-.73,22.91,22.91,0,0,1,5.56-1.63,6.06,6.06,0,0,0,1-.28C35,43.35,35.36,43,35.45,43.68Z"/><path class="cls-40" d="M41,32.54c.26-.1.51-.32.79,0-.33.23-.25.58-.17.86.58,2.13.87,4.36,2.07,6.28a7.86,7.86,0,0,1,1.57.83c.08.11.26.23.24.31-.29,1.15.59,1.24,1.32,1.44.34.1.72.09,1.06.2.5.16.52.37.05.7-.2.14-.26.25-.1.4s.5.39.75.58l.3.27a1,1,0,0,1-.38,0,20.54,20.54,0,0,1-5.61-3.28,1,1,0,0,1-.29-.59Q41.74,36.53,41,32.54Z"/><path class="cls-35" d="M34.53,71.61a7.4,7.4,0,0,1,2.86-6.79c1.15-1,2.15-2.2,3.4-3.1.13-.09.31-.31.45-.13s-.08.31-.19.43A45.51,45.51,0,0,0,38,66a18.9,18.9,0,0,0-3,7.2c0,.17,0,.44-.25.41s-.17-.29-.17-.47Z"/><path class="cls-35" d="M121.34,59l3.86,4a1.74,1.74,0,0,1,.58.89c.57,3.32,1.48,6.61,1,10-.74-.11-.17-.79-.48-1.08a60,60,0,0,0-1.62-8.09,7.45,7.45,0,0,0-1.44-2.58c-.72-1-1.46-1.94-2.2-2.91C121,59,121.1,58.92,121.34,59Z"/><path class="cls-41" d="M104.39,41.78a4.88,4.88,0,0,0,1.71-1.61c1.46-2.31,1.83-5,2.35-7.57l.6-.59c-.35,2.82-1.14,5.56-1.59,8.37a1.26,1.26,0,0,1-.53.9,27.61,27.61,0,0,1-5.26,3c-.14.06-.34.2-.44,0,0,0,.15-.19.26-.27.44-.32,1.22-.49.41-1.25-.27-.26.07-.37.27-.43A14.15,14.15,0,0,0,104.39,41.78Z"/><path class="cls-39" d="M54.52,105.8c.72,1.43,2.07,2.44,2.63,4,.86,2.34,3,3.8,4.08,6l.21.36c0,.28-.08.4-.37.35a46.54,46.54,0,0,0-3.91-3.91,3.16,3.16,0,0,1-.87-1.18,51.22,51.22,0,0,1-2-5C54.1,106,54.05,105.79,54.52,105.8Z"/><path class="cls-34" d="M69.25,15.43a7.1,7.1,0,0,0-3-2.27A3.85,3.85,0,0,1,65,7.05c.09-.1.16-.25.33-.18s.13.2.12.33,0,.55,0,.82a5.27,5.27,0,0,0,2.12,4.62,6.51,6.51,0,0,1,2,2.22C69.76,15.21,69.73,15.44,69.25,15.43Z"/><path class="cls-31" d="M95.46,106.85c-.31,1.62-1.23,3-1.79,4.53a3.68,3.68,0,0,1-.94,1.14l-3.8,3.88c-.46,0-.5-.21-.28-.55a22.65,22.65,0,0,1,3.51-4.45c.58-.5.24-1.13.61-1.67.78-1.15,1.62-2.27,2.42-3.41C95.69,106.3,95.65,106.54,95.46,106.85Z"/><path class="cls-36" d="M122.45,41.27a51.49,51.49,0,0,0-5.71-5,9.71,9.71,0,0,0-3.34-1.44c-.19,0-.54,0-.51-.28s.37-.19.59-.22.54,0,.81-.08.33-.16.22-.36c-.41-.77.11-.53.42-.36a16.64,16.64,0,0,1,2.94,2.19,29.81,29.81,0,0,1,4.91,5.25C122.84,41.22,122.72,41.32,122.45,41.27Z"/><path class="cls-36" d="M37.27,34.51c0,.18-.18.18-.29.19-3.82.6-6.15,3.42-8.76,5.84-.47.44-.74,1.16-1.52,1.22.09-.68.66-1.07,1-1.55a29.25,29.25,0,0,1,6.2-6c.46-.32.91-.88,1.56-.07.22.28.94.15,1.43.22A1.2,1.2,0,0,1,37.27,34.51Z"/><path class="cls-42" d="M56.72,76.93c.16,0,.4.42.48-.05s0-.88.08-1.33c.46-.27.78,0,1.1.28a5,5,0,0,1-.53,2.07c-.26.84-.21.95.68.93a30.54,30.54,0,0,1,7.81.75c.44.11.87.27,1.3.4.13,0,.28.13.21.28a.36.36,0,0,1-.33.13c-.72-.1-1.43-.24-2.14-.35a29.47,29.47,0,0,0-7.56-.37c-.45,0-.93.06-.3.64.35.32.35.64-.24.68,0-.57-.86-.67-.68-1.34.06-.21-.07-.58,0-.64,1-.58.26-1.21.1-1.82A2.17,2.17,0,0,1,56.72,76.93Z"/><path class="cls-43" d="M92.71,79.67c-3-.37-5.87.21-8.79.6a5,5,0,0,1-.53.11c-.24,0-.6.2-.67-.17s.32-.27.52-.33a27.85,27.85,0,0,1,8.33-1,3.77,3.77,0,0,1,.67,0c.52.09.69,0,.47-.57a3.69,3.69,0,0,1-.52-1.94c.48-.32.32-.79.28-1.22A4.61,4.61,0,0,1,92.75,73c.17-.42.42-.94,1.09-.68a20.5,20.5,0,0,0-.58,3.82c0,.39,0,.75.57.54-.11.83-.78,1.59-.3,2.51,0,.09-.15.31-.24.46A.43.43,0,0,1,92.71,79.67Z"/><path class="cls-44" d="M107.78,51.26c2.75,1.29,4.52,3.62,6.29,6a.8.8,0,0,1,.17.36c0,.13,0,.35,0,.37s-.16-.12-.23-.21-.27-.56-.57-.41,0,.41,0,.62,0,.36-.06.37c-.2,0-.27-.16-.36-.29-1-1.47-2.19-2.77-3.21-4.19a8,8,0,0,0-2.34-2.21C107.39,51.35,107.49,51.22,107.78,51.26Z"/><path class="cls-45" d="M92.71,79.67l.58,0c-.15,1,0,2.11-1.07,2.77-.24.14-.2.37.07.5.43.2.46.49.19.84-.24-.72-.86-.56-1.37-.57-2.18,0-4.36,0-6.53,0-.37,0-1,.15-1-.27s.66-.28,1-.34a44.09,44.09,0,0,1,6.5-.44c.6,0,1.34,0,1.48-.65A3.2,3.2,0,0,0,92.71,79.67Z"/><path class="cls-46" d="M58.12,82.07c2.31,0,4.61.06,6.9.3a4.68,4.68,0,0,1,2.08.46c-.57.64-1.33.32-2,.33-2.44,0-4.88,0-7.32,0C58.23,82.88,58.79,82.67,58.12,82.07Z"/><path class="cls-47" d="M36.28,56.49c1-1.33,2.34-2.26,3.37-3.52a4.12,4.12,0,0,1,2-1.43c.31-.11.39,0,.34.31a5,5,0,0,0-1.82,1.82A38.34,38.34,0,0,1,37,57.81c-.25.31-.46.23-.38-.21C37,57.07,36,57,36.28,56.49Z"/><path class="cls-18" d="M24,79.92a.62.62,0,0,1,.48.42,22.56,22.56,0,0,0,2,4.12c.3.52.1.63-.36.63H24A19.88,19.88,0,0,1,24,79.92Z"/><path class="cls-12" d="M42.28,87.8a9.11,9.11,0,0,1,1.29-4.66,26.15,26.15,0,0,1,2.77-3.86c.11-.12.24-.35.41-.21s0,.32-.13.44a26.37,26.37,0,0,0-4,9,1.84,1.84,0,0,1-.17.47c-.31-.07-.15-.33-.18-.52S42.28,88,42.28,87.8Z"/><path class="cls-48" d="M58.38,85.07l7.43.84c.16,0,.41,0,.39.24s-.25.23-.42.24a21.92,21.92,0,0,1-3.8-.1c-.63-.08-1.26-.11-1.89-.18-.87-.09-1.3.24-1.18,1.15a.84.84,0,0,1-.19-1.07C59.24,85.57,58.56,85.42,58.38,85.07Z"/><path class="cls-49" d="M90.74,104.05a27.19,27.19,0,0,0,3.53-8.62c0-.25-.07-.72.32-.72.17,0,.09.49,0,.75a16.36,16.36,0,0,1-3.56,8.93C90.82,104.42,90.68,104.33,90.74,104.05Z"/><path class="cls-17" d="M91.32,86a31.2,31.2,0,0,1-6.61.45c-.22,0-.57,0-.58-.21,0-.41.38-.27.6-.28,2.13-.09,4.21-.56,6.32-.75a1.6,1.6,0,0,0,1.39-.91.89.89,0,0,1-.49,1A1.23,1.23,0,0,0,91.32,86Z"/><path class="cls-14" d="M58.62,103.88c-2.28-2.53-2.8-5.7-3.25-8.89a1.85,1.85,0,0,1,.06-.52c.31,0,.21.32.24.5A27,27,0,0,0,59,103.52C59,103.81,58.9,103.92,58.62,103.88Z"/><path class="cls-50" d="M105.32,81.5a10.33,10.33,0,0,1,2.39,6.87c0,.22.17.59-.15.65s-.23-.34-.27-.55a29.87,29.87,0,0,0-2.36-6.6C104.89,81.57,105,81.45,105.32,81.5Z"/><path class="cls-12" d="M98.16,92.4a14.51,14.51,0,0,0-.66-5.07c-.09-.22-.19-.46.11-.54s.35.24.43.43a11,11,0,0,1,.85,4.88c-.06.81-.24,1.61-.37,2.41,0,.11-.14.31-.19.31-.27,0-.16-.25-.16-.39C98.16,93.75,98.16,93.07,98.16,92.4Z"/><path class="cls-6" d="M51,91.07A11.67,11.67,0,0,1,52,87.21c.06-.15.12-.36.34-.28s.12.25.09.37a27.17,27.17,0,0,0-.55,7.14c0,.13.12.38-.16.38-.06,0-.14-.21-.18-.33A12.38,12.38,0,0,1,51,91.07Z"/><path class="cls-51" d="M45.21,40.47c-.8.25-1.39.1-1.57-.83.07-.11.22-.23.2-.32a26.23,26.23,0,0,1-.22-4.85l.31.28c.11,1,.22,2,.35,3.08,0,.17,0,.4.24.44s.24-.19.31-.34.13-.34.22-.49.22-.28.27-.26c.24.1.08.28,0,.42A3.51,3.51,0,0,0,45.21,40.47Z"/><path class="cls-52" d="M66.26,102.25a1.47,1.47,0,0,0,.29-1c0-.31,0-.7.35-.8s.62.25.81.56.18.47.35.56c.5.29.29-.22.38-.38.85.27.88,1,.9,1.7,0,.3-.33.35-.59.13a8.77,8.77,0,0,1-1.32-1.71c-.08-.15-.22-.33-.43-.21s-.11.24-.12.36a5.34,5.34,0,0,0,.31,1.86c0,.16.17.39,0,.47s-.3-.16-.39-.31A1.81,1.81,0,0,1,66.26,102.25Z"/><path class="cls-53" d="M58.62,103.88l.36-.36q1.64,2.57,3.26,5.16c.07.1.13.32.08.35-.21.16-.3-.07-.38-.19C60.8,107.2,59.62,105.6,58.62,103.88Z"/><path class="cls-8" d="M28.93,36.93a2.82,2.82,0,0,1-1.68,2.25,8.55,8.55,0,0,0-1.41,1c-.13.09-.34.22-.45,0,0-.07.09-.24.17-.33.76-.82,1.53-1.63,2.3-2.45C28.25,37.33,28.39,36.69,28.93,36.93Z"/><path class="cls-54" d="M53.34,22.77a11.78,11.78,0,0,1,2.57.69c.11.05.19.18.28.27-.13,0-.26.09-.38.06a18.55,18.55,0,0,0-4.58-.28,1.45,1.45,0,0,1-.35-.07,1.61,1.61,0,0,1,.33-.2A5.61,5.61,0,0,1,53.34,22.77Z"/><path class="cls-55" d="M71.19,114.48c-.21.14-.23.37-.31.58-.84-2-1.21-4.06-2-6a1.62,1.62,0,0,1,0-.38c.08.09.2.16.24.27A32.33,32.33,0,0,1,71.19,114.48Z"/><path class="cls-56" d="M99.57,26.53c.06.24-.08.27-.21.29-1.19.16-2,1-2.93,1.62-.14.09-.32.28-.47.12s0-.34.14-.45c.78-.77,1.42-1.71,2.66-1.87C99.18,26.19,99.31,26.47,99.57,26.53Z"/><path class="cls-10" d="M54,28.38c0,.21-.06.3-.22.24a1.85,1.85,0,0,1-.47-.27,6.22,6.22,0,0,0-3.11-1.56.26.26,0,0,1-.26-.26c0-.16.17-.18.3-.19a2.38,2.38,0,0,1,2.14.47A8.33,8.33,0,0,1,54,28.38Z"/><path class="cls-27" d="M131.75,62.44c.2,0,.48.17.52-.22.41.16.73.53,1.21.52A6.49,6.49,0,0,1,135,63.85c-1.47-.05-3,.26-4.41-.25.22,0,.45,0,.67,0,.47,0,1.22.21,1.35-.14S131.94,62.9,131.75,62.44Z"/><path class="cls-57" d="M97.56,23.42a22.83,22.83,0,0,0-3.48.35c-.13,0-.35,0-.38,0s.1-.21.2-.24c1.5-.45,3-1.12,4.55-.3a4.91,4.91,0,0,1,.44.25c-.18,0-.35,0-.53,0C98,23.47,97.65,23.43,97.56,23.42Z"/><path class="cls-58" d="M68.75,103c.26,0,.46-.15.31-.4-.26-.46-.22-1-.62-1.43-.17-.19-.23-.39,0-.56s.43,0,.53.17c.48.84.94,1.68,1.4,2.53C69.8,103.33,69.09,104.15,68.75,103Z"/><path class="cls-55" d="M82.7,102c-.3.34-.59.69-.89,1-.15.16-.36.36-.58.23s-.1-.38,0-.59a2.49,2.49,0,0,0,.22-.77c0-.3-.25-.13-.4-.15a1,1,0,0,1,0-.39c.15-.4.15-1.08.68-1s.34.72.29,1.15c-.11,1,.41.16.63.21Z"/><path class="cls-59" d="M118.92,34.45c.35,0,.52-.15.5-.51l2.75,3.78c0,.49-.22.45-.53.27a2.64,2.64,0,0,0-.88-1.47A10.38,10.38,0,0,1,118.92,34.45Z"/><path class="cls-60" d="M105.32,81.5l-.39.37c-.88-1.19-1.58-2.52-2.56-3.65-.09-.11-.3-.25-.1-.43,0,0,.23.12.31.21A15.47,15.47,0,0,1,105.32,81.5Z"/><path class="cls-61" d="M90.74,104.05l.34.34-2.45,3.67c-.22.32-.47.5-.52-.11a12.34,12.34,0,0,0,1.37-2.14Z"/><path class="cls-17" d="M71.75,38.25c-.5-.45-1-.9-1.52-1.33-.94-.79-1-.78.15-1.38.11.07.32.15.32.21C70.6,36.77,71.32,37.45,71.75,38.25Z"/><path class="cls-8" d="M121.64,38l.53-.27c.9.53,1.23,1.65,2.19,2.13.1,0,.18.24,0,.32a.43.43,0,0,1-.36-.05A7.05,7.05,0,0,1,121.64,38Z"/><path class="cls-62" d="M42,51.85l-.34-.31a21.33,21.33,0,0,1,3-1.63c.12,0,.26-.15.35,0s-.11.22-.21.28A11.08,11.08,0,0,1,42,51.85Z"/><path class="cls-63" d="M28.93,36.93c-.37.13-.63.51-1.07.48A35,35,0,0,0,30,34.46l.26.55C29.81,35.63,29.65,36.48,28.93,36.93Z"/><path class="cls-64" d="M88.65,115.85a.68.68,0,0,0,.28.55c-.56.79-1.12,1.59-1.69,2.38A1,1,0,0,1,87,119c-.18-.16,0-.33,0-.48A9.17,9.17,0,0,1,88.65,115.85Z"/><path class="cls-55" d="M69.52,22.51l.35-.34a11.5,11.5,0,0,1,1.63,2.9c0,.11.13.32.1.35-.23.16-.29-.1-.36-.21A26.22,26.22,0,0,1,69.52,22.51Z"/><path class="cls-65" d="M79.9,35.53a.77.77,0,0,0,.56.32c.4.08.41.35.14.54-.75.55-1.24,1.39-2.08,1.84a1.46,1.46,0,0,1,.4-.69c.39-.44,1-.8.55-1.57C79.4,35.84,79.66,35.6,79.9,35.53Z"/><path class="cls-66" d="M107.78,51.26l-.35.36a2.8,2.8,0,0,1-1.36-.79c-.38-.3-1-.37-1.08-1,.58,0,1,.34,1.44.58A4.53,4.53,0,0,1,107.78,51.26Z"/><path class="cls-67" d="M69.25,15.43a.9.9,0,0,0,.31-.57,7.9,7.9,0,0,1,1.26,2.63c.05.12.08.3-.06.35s-.25-.09-.3-.18C70,16.92,69.65,16.17,69.25,15.43Z"/><path class="cls-42" d="M24,79.92v5.17a1,1,0,0,1,0,.24c-.33-.27-.28-.64-.28-1,0-1.75,0-3.51,0-5.26A1.34,1.34,0,0,1,24,79.92Z"/><path class="cls-68" d="M71.74,101.13c.37.14.73.8,1.08-.1.17-.42.3-.37.59.34-.49.26-.13,1.21-.64,1.16S71.91,101.74,71.74,101.13Z"/><path class="cls-69" d="M95.46,106.85c0-.2,0-.42-.27-.53l1.29-3.12a3.72,3.72,0,0,1,.19-.34.25.25,0,0,1,.1.33A13.56,13.56,0,0,1,95.46,106.85Z"/><path class="cls-70" d="M36.28,56.49c.19.35.84.56.33,1.11-.07-.24-.19-.46-.43-.18-.37.44-.69.94-1,1.4-.08.1-.27.24-.31.21-.2-.13-.09-.31,0-.45A8.84,8.84,0,0,1,36.28,56.49Z"/><path class="cls-71" d="M92.73,11.85c-.22-.26-.56-.2-.84-.28.93-.34,1.86-.68,2.79-1,.12,0,.34,0,.38,0,.14.23-.12.3-.24.35A8.44,8.44,0,0,1,92.73,11.85Z"/><path class="cls-61" d="M61.07,116.41l.37-.35a10.26,10.26,0,0,1,1.47,2.36c.06.12.1.29,0,.35s-.24-.08-.3-.17A18,18,0,0,1,61.07,116.41Z"/><path class="cls-72" d="M121.34,59l-.28.28a13.92,13.92,0,0,1-1.86-2.13c-.08-.08-.14-.29-.09-.34s.24,0,.32.1A13.5,13.5,0,0,1,121.34,59Z"/><path class="cls-73" d="M113.71,26c.28-.09.63,0,.84-.29a.75.75,0,0,1,.26,0,6,6,0,0,1,2,1.12c-.8.26-1.35-.44-2.06-.52A1.86,1.86,0,0,1,113.71,26Z"/><path class="cls-55" d="M24,50a.77.77,0,0,0,.24.5c-.46.66-.92,1.33-1.39,2-.09.12-.2.36-.38.24s0-.33.09-.47A8.6,8.6,0,0,1,24,50Z"/><path class="cls-74" d="M57.86,11.56c-.27.08-.6,0-.82.27l-2.22-.95c-.1-.05-.17-.17-.26-.25a.85.85,0,0,1,.38,0A17.54,17.54,0,0,1,57.86,11.56Z"/><path class="cls-66" d="M79.67,112c.3-.89.6-1.78.91-2.66,0-.14.12-.38.32-.34s.1.24,0,.36c-.41,1-.51,2.18-1,3.19C79.68,112.49,79.77,112.22,79.67,112Z"/><path class="cls-75" d="M80.46,21.38l.26.54a8.69,8.69,0,0,1-1.31,2,.26.26,0,0,1-.35.08c-.2-.11,0-.23,0-.32A17.92,17.92,0,0,1,80.46,21.38Z"/><path class="cls-76" d="M54.52,105.8c-.2.12-.18.34-.25.52a14.07,14.07,0,0,1-1.05-2.89c0-.1.05-.25.07-.37.09.08.22.14.26.24C53.88,104.13,54.2,105,54.52,105.8Z"/><path class="cls-77" d="M42.32,84c-.08-.21-.08-.45-.3-.57a.21.21,0,0,1,0-.13,4.13,4.13,0,0,1,1.38-1.77c.1.77-.57,1.24-.76,1.9A2.43,2.43,0,0,1,42.32,84Z"/><path class="cls-62" d="M126.32,72.83l.48,1.08a5.23,5.23,0,0,1-.23,1.84c0,.17,0,.45-.17.45s-.12-.28-.12-.44C126.29,74.78,126.3,73.8,126.32,72.83Z"/><path class="cls-78" d="M79.67,112c.19.13.21.35.26.55a13.19,13.19,0,0,1-.8,2.47l-.29-.58A11,11,0,0,1,79.67,112Z"/><path class="cls-63" d="M54.3,42.63c.33.83.79.16,1.19.1s.58-.2.69.09-.28.28-.45.41-.5.54-.92.45C54.5,43.4,53.57,43.41,54.3,42.63Z"/><path class="cls-53" d="M35.45,43.68c-.22-.24-.55-.17-.83-.27a26.47,26.47,0,0,1,2.89-.71c.11,0,.26,0,.39,0-.09.09-.16.22-.26.26A6.28,6.28,0,0,1,35.45,43.68Z"/><path class="cls-79" d="M28.7,59.56l-.3-.32a11.2,11.2,0,0,1,1.71-1.93c.07-.08.2-.21.32-.08s0,.25-.07.35A14.89,14.89,0,0,1,28.7,59.56Z"/><path class="cls-68" d="M97.59,110.09l.32.29a6.37,6.37,0,0,1-1.33,1.68c-.09.09-.28.24-.31.21-.23-.17,0-.31.08-.44A8.48,8.48,0,0,1,97.59,110.09Z"/><path class="cls-68" d="M71.71,103.34a4.09,4.09,0,0,1-.77-2.07c-.06-.28-.16-.72.2-.81s.53.33.6.67c-.32-.07-.53,0-.46.38A7.17,7.17,0,0,1,71.71,103.34Z"/><path class="cls-80" d="M60.82,24.66a1,1,0,0,0,.59-.31,4.81,4.81,0,0,1,1.7,1.47c-.85.12-1.29-.68-2-.9C61,24.88,60.92,24.75,60.82,24.66Z"/><path class="cls-81" d="M52.11,110.38l.29-.28a4.14,4.14,0,0,1,1,1.28c.18.26.6.52.35.86-.06.09-.46-.34-.65-.57C52.73,111.25,52.43,110.81,52.11,110.38Z"/><path class="cls-82" d="M122.45,41.27l.33-.33a8,8,0,0,1,1.35,1.66c.06.08.11.28.06.34s-.24,0-.32-.08A8.56,8.56,0,0,1,122.45,41.27Z"/><path class="cls-51" d="M34.88,26l.31.32a9.64,9.64,0,0,1-2,.81,1.58,1.58,0,0,1-.38,0c0-.16.13-.21.25-.28A7.15,7.15,0,0,1,34.88,26Z"/><path class="cls-83" d="M107.73,96.24c.08.25,0,.55.23.77a3.87,3.87,0,0,1-.79,1.55c-.07.08-.26.17-.32.14s0-.24,0-.36Z"/><path class="cls-84" d="M65.77,3.37l-.31.33s-.09,0-.12,0a5.21,5.21,0,0,1-1.52-1.4A2.56,2.56,0,0,1,65.77,3.37Z"/><path class="cls-85" d="M115.14,43.39c-.28.09-.6.06-.83.28-.64-.2-1.28-.4-1.91-.62-.15,0-.32-.12-.36-.32.13,0,.28-.08.38,0A23.09,23.09,0,0,1,115.14,43.39Z"/><path class="cls-74" d="M108,83.44a1.06,1.06,0,0,0-.31.59c-.22-.38-.45-.75-.65-1.14s-.56-.61-.23-.9c.13-.12.46.32.64.56A2.42,2.42,0,0,1,108,83.44Z"/><path class="cls-73" d="M92.49,16.8l.55.28c-.55.29-1.1.58-1.66.86-.12.06-.27.15-.36,0s0-.24.12-.31A3.11,3.11,0,0,1,92.49,16.8Z"/><path class="cls-85" d="M37.1,63.57a.63.63,0,0,0-.51-.24,2.7,2.7,0,0,1,1-.85c.19-.12.37-.54.62-.26s-.16.47-.32.66A2.25,2.25,0,0,1,37.1,63.57Z"/><path class="cls-18" d="M133.89,71.46c.73.56,1.64,1,1.94,1.94a8.72,8.72,0,0,1,.68,3.54q-.06,3.66,0,7.32c0,.9-.18,1.29-1.18,1.25-1.72-.07-3.43,0-5.14-.26-.54-.07-.81-.22-.8-.82.07-3-.1-6,.1-9.07.38-.88.75-1.76,1.13-2.65C131.48,71.69,132.46,71,133.89,71.46Z"/><path class="cls-18" d="M139.79,73.1c1.58-1.21,2.41-.93,3.41,1.12.72,2.38.28,4.82.38,7.24,0,1,0,2.07,0,3.1s-.23,1.34-1.19,1.21a7.79,7.79,0,0,0-1.08,0c-3.59,0-2.94,0-2.91-2.89,0-2.56-.31-5.14.25-7.68A3.66,3.66,0,0,1,139.79,73.1Z"/><path class="cls-18" d="M145.33,76.15c.28-.61.53-1.23.84-1.82s.55-1,1.2-.9.9.57,1.09,1.07.33,1.11.49,1.67c.21,3.24.05,6.47.08,9.71,0,.18-.14.21-.23.3h-1.49c-2.08-.35-2.11-.35-2.08-2.58C145.27,81.11,145.1,78.63,145.33,76.15Z"/><path class="cls-18" d="M150.25,76.92c.45-.57.44-1.33.77-2,.42-.79.83-.81,1.34-.07a3,3,0,0,1,.4,1.53c.23,3.06,0,6.12.1,9.18,0,.5-.17.79-.71.73a10,10,0,0,1-1.89-.12A73.84,73.84,0,0,1,150.25,76.92Z"/><path class="cls-86" d="M129.5,75.36c0,2.8,0,5.61.05,8.41,0,1.26,0,1.16,1.22,1.31a31.63,31.63,0,0,0,4.56.27c.71,0,1-.15,1-1,0-2.76,0-5.52,0-8.27,0-.94-.63-1.76-.53-2.72a3.35,3.35,0,0,1,.78,2.52c.07,2.9,0,5.8,0,8.7,0,.74-.24,1.1-1,1.06-1.81-.09-3.63-.15-5.45-.21-.6,0-.91-.26-.91-.9,0-2.9,0-5.8,0-8.71A1.78,1.78,0,0,1,129.5,75.36Z"/><path class="cls-87" d="M139.79,73.1a10.3,10.3,0,0,0-1.26,5.78c.06,1.72,0,3.43,0,5.15,0,1.41.19,1.57,1.67,1.59l1.08,0v.17h-2.16a.75.75,0,0,1-.83-.84c0-3-.14-6,.08-9C138.46,74.88,138.56,73.67,139.79,73.1Z"/><path class="cls-88" d="M141.29,85.84v-.17c2.16-.11,2.16-.11,2.16-2.28s0-4.44,0-6.65c0-.87-.48-1.65-.27-2.52a2.89,2.89,0,0,1,.53,2c.05,2.93,0,5.86.05,8.8,0,.73-.34,1-1,.88Z"/><path class="cls-89" d="M150.27,86.18c.79-.1,1.79.32,2.31-.27s.14-1.47.14-2.22c0-2.42,0-4.85,0-7.27.32.28.25.66.25,1,0,2.67,0,5.35,0,8,0,1.13,0,1.13-1.17,1.06-.5,0-1-.08-1.5-.12-.09,0-.13-.07-.11-.12S150.24,86.18,150.27,86.18Z"/><path class="cls-90" d="M145.33,76.15l0,8.37c0,1.3,0,1.3,1.26,1.37.26,0,.55,0,.69.28-2.76,0-2.2-.11-2.23-2.13s0-4.22,0-6.33A2.5,2.5,0,0,1,145.33,76.15Z"/><path class="cls-91" d="M148.8,86.18a46.31,46.31,0,0,0,.1-5.27c0-1.58,0-3.16,0-4.74a1.53,1.53,0,0,1,.23,1q0,3.95,0,7.89C149.17,85.49,149.27,85.94,148.8,86.18Z"/><path class="cls-92" d="M150.27,86.18a.78.78,0,0,1,0,.21,1.13,1.13,0,0,1-.3-1V78a1.74,1.74,0,0,1,.24-1Q150.25,81.56,150.27,86.18Z"/><path class="cls-9" d="M153.76,77.72l.09,9a1.15,1.15,0,0,1-.29-.88c0-2.48,0-5,0-7.45A2.63,2.63,0,0,1,153.76,77.72Z"/><path class="cls-93" d="M133.89,71.46c-1.35-.28-2.26.61-3.26,1.25A2.36,2.36,0,0,1,133.89,71.46Z"/><path class="cls-18" d="M16.64,74.74c.43-.63.53-1.4,1-2,1-1.39,2-1.4,3.14-.09a8.52,8.52,0,0,1,1,2.1A8,8,0,0,1,22,77.65c0,2.17,0,4.34,0,6.5,0,.95-.37,1.33-1.26,1.34-.18,0,.05,0-.13,0-1.3-.06-2.94.54-3.81-.22s-.26-2.39-.25-3.63A56.56,56.56,0,0,1,16.64,74.74Z"/><path class="cls-18" d="M10.6,75.34c.22-.63.46-1.26.67-1.89a1.65,1.65,0,0,1,1.31-1c.58-.14.9.39,1.14.78.42.68.72,1.43,1.08,2.15.18,3.32,0,6.64.07,10,0,.17-.12.22-.21.32l-.54,0a17.94,17.94,0,0,1-2.84.1c-.6,0-.78-.25-.77-.81C10.57,81.75,10.41,78.54,10.6,75.34Z"/><path class="cls-18" d="M1.9,77.17a18.87,18.87,0,0,0,.65-2.59c.09-.33.26-.63.58-.67s.45.27.59.5a7.64,7.64,0,0,1,.89,3.88c.06,2.61,0,5.23,0,7.85a2,2,0,0,1-1,.3c-1.49.08-1.66-.06-1.66-1.53Q1.91,81,1.9,77.17Z"/><path class="cls-94" d="M16.64,74.74c0,3.13,0,6.26,0,9.38,0,1.22,0,1.22,1.28,1.24.91,0,1.82.06,2.73,0,.68,0,1.18-.28,1.17-1.14,0-3.17,0-6.34-.05-9.52.42.39.35.92.36,1.41,0,2.76,0,5.53,0,8.29,0,.71-.18,1.11-1,1.12-1.32,0-2.64.06-4,.11-.54,0-.86-.15-.86-.76,0-3.17,0-6.34,0-9.52A2,2,0,0,1,16.64,74.74Z"/><path class="cls-95" d="M10.6,75.34l.06,9.06c0,1.19,0,1.19,1.16,1.23.76,0,1.53,0,2.3,0a12.12,12.12,0,0,1-2.82.23c-.73,0-.93-.32-.92-1,0-3.2-.1-6.41.06-9.61Z"/><path class="cls-96" d="M14.66,85.64c.18-2.39,0-4.79.08-7.18l.06-3.11.2.2c0,2.92,0,5.83,0,8.75C15,84.76,15.22,85.31,14.66,85.64Z"/><path class="cls-10" d="M9.31,76.63a2.05,2.05,0,0,1,.26,1.31q0,3.33,0,6.66a5,5,0,0,1-.07.94c-.05.27-.28.64-.51.51s.12-.37.19-.57a2.48,2.48,0,0,0,.12-.93c0-2.63,0-5.26,0-7.88Z"/><path class="cls-18" d="M11.16,49.4c1.05,0,1.36.81,1.56,1.58a9.84,9.84,0,0,1,.4,2.66c0,2,0,4,0,6.08s0,1.88-1.65,2.44a1.43,1.43,0,0,1-2.27.49c-.38-2.37-.07-4.75-.18-7.12a10.79,10.79,0,0,1,.88-5.26C10.14,49.77,10.35,49.13,11.16,49.4Z"/><path class="cls-18" d="M7.35,50.22c1,.54,1.06,1.57,1.08,2.49.07,3,0,6,.06,9,0,1.11-.86,1-1.39,1.33a.87.87,0,0,1-1.26.52c-.49-.36-.36-.89-.36-1.37,0-2.61,0-5.23,0-7.84A9.52,9.52,0,0,1,6,51.41C6.25,50.79,6.58,50.26,7.35,50.22Z"/><path class="cls-18" d="M2.81,64.17c-.54-.17-.61-.61-.61-1.08,0-2.4-.07-4.8,0-7.19a12.44,12.44,0,0,1,.91-3.66c.12-.35.33-.7.76-.68s.57.43.63.77a15.69,15.69,0,0,1,.36,2.54c0,2.57,0,5.15,0,7.72a1.68,1.68,0,0,1-.31,1.28C4.08,64.38,3.54,64.85,2.81,64.17Z"/><path class="cls-97" d="M11.16,49.4c-.83.31-1.05,1.08-1.31,1.78a8.52,8.52,0,0,0-.54,2.91c0,2.79,0,5.57,0,8.36A1,1,0,0,1,9,63.57a1.74,1.74,0,0,1-.26-1.29c0-2.75,0-5.5,0-8.26a10.29,10.29,0,0,1,.8-3.82A1.82,1.82,0,0,1,10.61,49C10.93,48.92,11.13,49,11.16,49.4Z"/><path class="cls-98" d="M7.35,50.22a3.89,3.89,0,0,0-1.53,3.32c-.24,3.06-.08,6.13-.07,9.19a.68.68,0,0,0,.27.59c.27.58-.3.74-.54,1.06-.37-.36-.28-.83-.28-1.27,0-2.84,0-5.67,0-8.51a9.07,9.07,0,0,1,.76-3.67C6.18,50.37,6.5,49.71,7.35,50.22Z"/><path class="cls-99" d="M9,63.57a1.47,1.47,0,0,1,.31-1.12,8.54,8.54,0,0,0,2.13-.29c.33.05.77-.12.86.41s-.26.65-.64.7A7.47,7.47,0,0,1,9,63.57Z"/><path class="cls-100" d="M5.48,64.38A1,1,0,0,1,6,63.32L7.1,63c.31.07.77-.15.83.4s-.26.64-.63.69A6.59,6.59,0,0,1,5.48,64.38Z"/><path class="cls-58" d="M2.81,64.17c.6-.08,1.16-.46,1.8-.3a1.53,1.53,0,0,1-1.77,1.3C2.09,64.94,2.54,64.52,2.81,64.17Z"/><path class="cls-18" d="M134.8,61.45c-.42-.06-.8-.17-.87-.69a12.43,12.43,0,0,1-.27-1.6,54.18,54.18,0,0,1,.28-7.85,2.46,2.46,0,0,1,2.21-2.46c1.15-.37,1.63.46,2.09,1.22a8.15,8.15,0,0,1,.95,3.87c.11,2.29,0,4.59.06,6.89.05,1.3-.45,1.62-1.81,1.44C136.51,62.14,135.53,62.22,134.8,61.45Z"/><path class="cls-18" d="M141.28,62.45c-.14-.13-.32-.25-.48-.16-.66.36-.79,0-.85-.56a5.43,5.43,0,0,1,0-.81c0-2.12,0-4.25,0-6.38a13.24,13.24,0,0,1,.33-2.81c.18-.73.52-1.49,1.52-1.47.81-.17,1.14.4,1.41,1a8.24,8.24,0,0,1,.8,3.26c0,2.44,0,4.88,0,7.32,0,.91-.28,1.49-1.26,1.58C142.14,63.27,141.53,63.14,141.28,62.45Z"/><path class="cls-18" d="M145.15,63.35c-.54-.17-.6-.61-.6-1.08q0-4.14,0-8.28a4.07,4.07,0,0,1,.42-1.56c.13-.34.3-.69.72-.73s.73.29,1,.64a5.6,5.6,0,0,1,.84,3c.08,2.58,0,5.16,0,7.73a1.21,1.21,0,0,1-.33.87C146.3,64.56,145.67,64.15,145.15,63.35Z"/><path class="cls-100" d="M134.8,61.45a10.19,10.19,0,0,1,3,.32c.75.13,1.08,0,1.07-.85,0-2.47,0-5,0-7.43a6.34,6.34,0,0,0-.94-3.21,2.69,2.69,0,0,0-1.7-1.43c.69-.86,1.31-.3,1.82.18a4.82,4.82,0,0,1,1.41,3.14,83.57,83.57,0,0,1,.1,10c0,.69-.3,1-1,.87-1-.15-2-.26-3-.37C134.71,62.58,134.85,62,134.8,61.45Z"/><path class="cls-101" d="M142.63,62.79c.78.1,1.14-.15,1.12-1-.05-2.38.08-4.77-.07-7.15-.09-1.62-.23-3.36-1.9-4.36.81-.68,1.21-.06,1.55.53a6.81,6.81,0,0,1,.91,3.36c.08,2.93,0,5.86,0,8.79a1.15,1.15,0,0,1-.27.88C143.6,63.38,142.58,63.79,142.63,62.79Z"/><path class="cls-95" d="M142.63,62.79a1.1,1.1,0,0,0,.71.27c.49,0,.65.32.64.76-1.1.7-2.07-.13-3-.4-.48-.13-.37-.82.34-1Z"/><path class="cls-58" d="M145.15,63.35a12.28,12.28,0,0,0,2.06.55c.26.93.22,1-.55.89C145.33,64.62,145.09,64.39,145.15,63.35Z"/><path class="cls-18" d="M154.09,76.43c.37.11.27.42.28.67,0,2.85,0,5.69,0,8.54a2.51,2.51,0,0,1-.1.52c-.26-.13-.15-.36-.16-.55q0-4.47-.05-8.94A.4.4,0,0,0,154.09,76.43Z"/><path class="cls-18" d="M1.11,86.43C.3,86.49.28,86,.29,85.37c0-2.54,0-5.08,0-7.62,0-.81,0-1.63-.06-2.44a.33.33,0,0,1,.51.25c.05.94.4,1.82.38,2.78C1.06,81,1.1,83.74,1.11,86.43Z"/><path class="cls-102" d="M59.65,50.71c2.27.22,5.08,1.48,5.5,4.82.19,1.57.35,3.15.43,4.73,0,.22,0,.5.22.59s.4-.14.55-.3A22.48,22.48,0,0,0,70,56c.1-.19.22-.53.43-.45s.07.39,0,.59a14.17,14.17,0,0,1-2.24,4.48A57,57,0,0,0,63,69.2c-.07.16-.16.42-.34.35s-.15-.38-.1-.58c.25-.92.52-1.83.78-2.74.31-1.09.67-2.17.93-3.27a6.36,6.36,0,0,0-.13-3.35c-.55-1.75-1.27-2.38-3.1-2.53a6.83,6.83,0,0,1-2.11-.48,4.11,4.11,0,0,1-2.15-1.8,2.29,2.29,0,0,0-2.14-1.41.84.84,0,0,1-.26-.07c-.5-.19-1.3-.28-1.26-.84s.82-.26,1.26-.32a10.31,10.31,0,0,0,3-.88A5,5,0,0,1,59.65,50.71Z"/><path class="cls-103" d="M81.53,57.87a16.55,16.55,0,0,0,2.41,2.74c.16.16.33.42.54.36s.32-.39.32-.68a29.34,29.34,0,0,1,.61-5.12,5.29,5.29,0,0,1,7.48-4,8.79,8.79,0,0,0,3.93,1c.16,0,.39,0,.44.21a.43.43,0,0,1-.22.45,3.13,3.13,0,0,1-1.5.61,2.21,2.21,0,0,0-1.74,1.13,5.39,5.39,0,0,1-4.15,2.53c-2.55.32-3.55,1.38-3.73,3.95a9.13,9.13,0,0,0,.56,3.47A36.21,36.21,0,0,1,87.78,69c0,.26.37.62,0,.8-.13.08-.34-.36-.45-.6a40.11,40.11,0,0,0-4.19-7,32.25,32.25,0,0,1-2.44-4c-.13-.28-.27-.65.06-.81S81.34,57.61,81.53,57.87Z"/><path class="cls-1" d="M93.84,72.29c-.8.86-.68,2-.87,3-.06.31,0,.63,0,.94s.08.63-.24.68c-.14,0-.33-.36-.5-.56a21.76,21.76,0,0,1-.8-7.09A2,2,0,0,1,91.76,68c.34.35.21.81.26,1.22.1.76.16,1.53.23,2.29,0,.22,0,.5.3.54s.38-.2.49-.4a11.87,11.87,0,0,1,1.62-2c.16-.17.48-.37.69-.15s-.1.39-.24.54A17.31,17.31,0,0,0,93.84,72.29Z"/><path class="cls-104" d="M58.38,75.83c-.25.16-.27.44-.38.69s-.14.28-.23.29c-.26,0-.2-.23-.21-.38a1.4,1.4,0,0,0-.28-.88A9.83,9.83,0,0,0,55.87,71c-.11-.32-.18-.62.33-.61.33.42.64.86,1,1.25.17.17.35.49.64.42s.26-.42.29-.67c.1-1,.19-2,.29-3,0-.17,0-.4.19-.44s.24.21.28.37a9,9,0,0,1,.19,3.23A20,20,0,0,1,58.38,75.83Z"/><path class="cls-105" d="M89.06,46.85A4.54,4.54,0,0,1,88.42,49a.47.47,0,0,1-.41.29c-.27,0-.26-.24-.25-.4.31-2.68-1.44-4.44-2.85-6.35-.25-.36-.79-.78-.48-1.09s.75.28,1.06.5A14.22,14.22,0,0,1,88,44.23,4.22,4.22,0,0,1,89.06,46.85Z"/><path class="cls-106" d="M65.49,42.37l-1.42,2a6.32,6.32,0,0,0-1.45,4.39c0,.21.09.5-.2.56s-.38-.19-.49-.38a4,4,0,0,1,.6-4.75c.67-.73,1.44-1.37,2.16-2,.2-.18.41-.41.7-.3S65.61,42.15,65.49,42.37Z"/><path class="cls-95" d="M98.71,62.75c.29-.85.57-1.71.87-2.56a10.09,10.09,0,0,0,.62-4.65,4.38,4.38,0,0,1,0-.81c0-.33-.1-.82.4-.86s.4.42.53.69c.9,1.87,1,3.61-.64,5.21a3.77,3.77,0,0,0-1,2.19A4.31,4.31,0,0,1,99,63.91C98.53,63.63,98.78,63.15,98.71,62.75Z"/><path class="cls-59" d="M61.78,76.46A14.44,14.44,0,0,1,68,77.8a6.67,6.67,0,0,1,.91.58c.15.1.33.26.25.44s-.37.12-.57.05a32.75,32.75,0,0,0-5.33-1.52c-.85-.14-1.71-.17-2.56-.27-.21,0-.55,0-.56-.26s.36-.33.61-.35S61.42,76.46,61.78,76.46Z"/><path class="cls-43" d="M88.67,76.37c.59.17,1.48-.17,1.51.36s-.86.37-1.36.41A26.18,26.18,0,0,0,82,78.81c-.24.08-.58.36-.73.09s.23-.54.47-.7a11.53,11.53,0,0,1,3.92-1.45C86.68,76.54,87.72,76.48,88.67,76.37Z"/><path class="cls-94" d="M50.18,60.06a5.3,5.3,0,0,0-.51-.64,3.28,3.28,0,0,1-.75-3.75c.25-.66.31-1.41.91-1.91.67.64.32,1.44.3,2.17a9.48,9.48,0,0,0,.32,3.31C50.61,59.6,50.82,60,50.18,60.06Z"/><path class="cls-107" d="M98.71,62.75c.33.32.26.76.33,1.16a2.09,2.09,0,0,1-.79,1.5,1.47,1.47,0,0,1-2.08.08,3,3,0,0,1-.57-.56c-.29-.38-1-.8-.78-1.13s.84.17,1.26.36a1.41,1.41,0,0,0,1.82-.34C98.19,63.48,98.44,63.11,98.71,62.75Z"/><path class="cls-108" d="M51.78,62.79c.9,1.7,1.39,1.87,3,1.09.22-.11.5-.4.69-.09s-.16.46-.32.66a4.12,4.12,0,0,1-.28.31c-1.57,1.71-2.92,1.38-3.65-.9a1.36,1.36,0,0,1-.08-1.13C51.35,62.28,51.61,62.43,51.78,62.79Z"/><path class="cls-43" d="M80.92,51.34c.23,0,.27.24.27.41a12,12,0,0,0,1.52,5c.09.19.26.42,0,.57-.08,0-.33-.13-.44-.26A6.68,6.68,0,0,1,80.51,52C80.54,51.63,80.77,51.33,80.92,51.34Z"/><path class="cls-109" d="M69.73,53.22a7,7,0,0,1-1.64,3.91c-.11.13-.25.34-.44.24s-.1-.32,0-.48c.21-.5.42-1,.64-1.5A8.53,8.53,0,0,0,69,51.7c0-.11.06-.3.14-.33s.21.12.28.23A3.56,3.56,0,0,1,69.73,53.22Z"/><path class="cls-110" d="M60.21,58.72c-1.8-.12-3.52-.43-4.63-2.09-.14-.22-.41-.51-.21-.71s.48.09.65.26a7.87,7.87,0,0,0,4.6,2.13c.21,0,.57,0,.57.23s-.36.15-.57.18Z"/><path class="cls-111" d="M90.3,58.73c-.35,0-.58,0-.8,0s-.14-.09-.21-.13.12-.15.19-.17.36-.05.53-.08a8,8,0,0,0,4.32-2.09c.17-.16.36-.53.64-.27s0,.49-.18.7C93.68,58.28,92,58.6,90.3,58.73Z"/><path class="cls-112" d="M67.7,54c-.06.34.12.72-.23.78s-.39-.33-.46-.57c-.31-1.13-.59-2.26-.89-3.4a.39.39,0,0,1,.13-.48c.25-.13.43.07.55.26A10.46,10.46,0,0,1,67.7,54Z"/><path class="cls-96" d="M82.85,53.73a8.42,8.42,0,0,1,.7-2.79c.1-.25.29-.55.59-.44s.13.4.1.62a14,14,0,0,1-.87,3c-.06.16-.11.42-.31.39s-.19-.34-.21-.54A1.74,1.74,0,0,1,82.85,53.73Z"/><path class="cls-48" d="M51.78,62.79c-.24-.06-.45-.06-.45.28s0,.53-.06.79c-.52-1.22-.54-2.59-1.09-3.8.28-.21.26-.52.27-.82A12.9,12.9,0,0,1,51.78,62.79Z"/><path class="cls-113" d="M81.53,57.87c-.4-.27-.79-.5-.82.29a6,6,0,0,1-1-2.6c0-.12,0-.33.06-.37.21-.1.32.09.39.24A25.11,25.11,0,0,1,81.53,57.87Z"/><path class="cls-114" d="M56.2,70.38l-.33.61c-.47-.54-.94-1.09-1.4-1.65a.41.41,0,0,1,0-.36c.08-.13.24-.1.36,0C55.35,69.36,56,69.66,56.2,70.38Z"/><path class="cls-115" d="M65.49,42.37c-.09-.64-.5-.29-.8-.26A3.5,3.5,0,0,1,65.63,41c.13-.12.3-.22.47-.09s.12.33.06.5A1.71,1.71,0,0,1,65.49,42.37Z"/><path class="cls-72" d="M65.52,50.7c0,.32,0,.65-.26.64-.54,0-.45-.55-.54-.9,0-.2,0-.53.24-.53C65.52,49.93,65.42,50.44,65.52,50.7Z"/><path class="cls-116" d="M80.5,102.52a8.21,8.21,0,0,1-2.79,2.86c-.6,0-.66,0-.47-.27a11.47,11.47,0,0,1,.79-1.25l.57-1a3.7,3.7,0,0,0-.3-1.4c.09-.63.46-1.32,1-1.15s.21.92.07,1.41-.39,1.09-.59,1.64c-.06.16-.22.35-.06.48s.3-.07.43-.17C79.63,103.28,79.94,102.76,80.5,102.52Z"/><path class="cls-1" d="M78.3,101.44c.25-.08.36-.49.64-.37s.17.46.1.69a2.55,2.55,0,0,1-.44,1.08c-1-.33-1.54.3-2.11.88-.28.27-.35.72-.7,1a15.48,15.48,0,0,1,1.15-3.29c.07-.16.2-.32.4-.28s.12.22.16.34-.08.62.32.6S78.18,101.67,78.3,101.44Z"/><path class="cls-117" d="M72.8,91.32c.1.19.17.46.46.24s.62-.5.93-.75c.09.06.12.12.09.19s0,.1-.08.1a7.83,7.83,0,0,1-1.81,1.63c-.18.12-.42.31-.61.14s0-.5.16-.69A2.53,2.53,0,0,1,72.8,91.32Z"/><path class="cls-118" d="M74.2,91.1v-.29c1-1,1-1,2-.09.37.37.85.64,1,1.17-.5,0-.75-.44-1.07-.74C75.22,90.3,75.22,90.3,74.2,91.1Z"/><path class="cls-44" d="M79,73.93c0,.16-.08.24-.17.32A11.86,11.86,0,0,0,75.47,79c-.1.23-.15.58-.5.55s-.26-.31-.34-.52c-.72-1.81-1.45-3.61-3.12-4.81-.11-.07-.21-.21-.1-.32a.45.45,0,0,1,.37-.09,3.49,3.49,0,0,1,.88.34,4.43,4.43,0,0,0,5,.07,4.83,4.83,0,0,1,1-.39A.27.27,0,0,1,79,73.93Z"/><path class="cls-1" d="M78,103.86a2.78,2.78,0,0,1-.5,1.09c-.12.21-.22.43.18.43-.14.37-.38.74-.78.49s-.11-.64.12-.91S77.55,104.09,78,103.86Z"/><path class="cls-30" d="M60.47,51.87a2.43,2.43,0,0,1,2.61,2,2.33,2.33,0,0,1-4.64-.18A1.79,1.79,0,0,1,60.47,51.87Z"/><path class="cls-119" d="M89.52,56a2.17,2.17,0,0,1-2.15-2.15,2.41,2.41,0,0,1,2.5-2.16A2.07,2.07,0,0,1,92,53.78,2.44,2.44,0,0,1,89.52,56Z"/><path class="cls-120" d="M61.63,53.34c0,.41-.23.71-.67.66s-.86-.19-.87-.68.44-.62.87-.63S61.66,52.86,61.63,53.34Z"/><path class="cls-90" d="M89.43,54c-.47,0-.76-.26-.76-.68a.68.68,0,0,1,.77-.74.63.63,0,0,1,.62.73A.69.69,0,0,1,89.43,54Z"/></svg>