<svg fill="none" height="57" viewBox="0 0 57 57" width="57" xmlns="http://www.w3.org/2000/svg"><path d="m27.5498 5.70117c-2.6233 0-4.75 2.12665-4.75 4.75003 0 2.6233 2.1267 4.75 4.75 4.75 2.6234 0 4.75-2.1267 4.75-4.75 0-2.62338-2.1266-4.75003-4.75-4.75003zm-5.7 11.40003c-1.8615.0023-3.5502 1.0917-4.3195 2.7869h-.0037l-.0186.0445c-.0344.0808-.0666.1624-.0965.2449l-3.7369 9.3256v.0037l-.0519.1262.0037.0037c-.2138.5464-.3245 1.1277-.3266 1.7145.0003 1.909 1.1433 3.6324 2.902 4.3752l8.4943 4.1748.0037 9.3775c-.0892 1.0251.6537 1.9349 1.6759 2.0525 1.0222.1175 1.9522-.5998 2.0982-1.6183l1.8999-11.4c.1227-.7372-.1983-1.4779-.8201-1.8926l-6.2715-5.3549 2.5049-6.264 3.7184 1.5734c.617.3302 1.3654.2945 1.9482-.0928l5.7-3.8c.5767-.3715.9083-1.025.8678-1.7097-.0406-.6848-.4471-1.2945-1.0636-1.5954-.6165-.3008-1.3473-.246-1.912.1434l-.1373.0928-4.6461 2.5643-5.5367-3.904h-.0037c-.8255-.6292-1.8343-.9706-2.8723-.9722zm21.3862 1.9334c-.2964-.0511-.6092-.0467-.9203.0259l-.7831.1856c.6327 2.0786.0418 4.3788-1.6587 5.8893-.1919.19-.4128.3735-.6161.5084l-3.5699 2.3787 5.0246 21.49c.2907 1.2445 1.535 2.0163 2.7795 1.7256l6.0192-1.4065c1.2464-.2888 2.02-1.5349 1.7293-2.7794l-6.1416-26.2624c-.2181-.9333-.9737-1.602-1.8629-1.7552zm-30.2813 19.1633-.2226 3.3101-6.20473 6.3531c-.8398.6289-1.01484 1.821-.38594 2.6608.37431.4978.9457.7607 1.5252.7607.3952 0 .79355-.1239 1.13555-.3785l7.60742-5.6889c.2622-.1957.4441-.4698.5752-.7681l.0223-.0037 1.4695-3.5366z" fill="#f8b833"/></svg>