<svg fill="none" height="57" viewBox="0 0 57 57" width="57" xmlns="http://www.w3.org/2000/svg"><path d="m28.5001 5.70117c-4.1974 0-7.6 3.40264-7.6 7.60003 0 4.1973 3.4026 7.6 7.6 7.6s7.6-3.4027 7.6-7.6c0-4.19739-3.4026-7.60003-7.6-7.60003zm-3.7406 19.00003 3.7258 9.7115 3.6293-9.7115h-3.6145zm9.3404.1187-4.3863 11.7488c.4104.3477.6865.8511.6865 1.4325v1.9c0 1.0488-.8512 1.9-1.9 1.9s-1.9-.8512-1.9-1.9v-1.9c0-.5795.2743-1.0791.6828-1.4287l-4.5051-11.734c-2.1337.3496-4.1054 1.407-5.5627 3.0429l-6.8615 7.704c-.92339 1.0336-1.11494 2.5001-.48984 3.7332l5.54044 10.9398c.3344.6612 1.0061 1.0428 1.6996 1.0428.2869 0 .578-.0654.8535-.2041.9101-.4617 1.2771-1.5537.861-2.4752l.0074-.0037-3.8186-10.0678 5.1397-3.3807c.4009 4.1268.7533 9.5974.7533 16.1315h15.2c0-6.5341.3524-12.0047.7533-16.1315l5.1397 3.3807-3.8186 10.0678h.0074c-.418.9215-.051 2.0135.861 2.4752.2774.1387.5666.2041.8535.2041.6935 0 1.3633-.3779 1.6996-1.0391l5.5404-10.9361c.627-1.235.4354-2.7015-.4861-3.7332l-6.8615-7.7077c-1.4858-1.6663-3.5077-2.7347-5.6889-3.0615z" fill="#f8b833"/></svg>